<svg xmlns="http://www.w3.org/2000/svg" width="121" height="44" viewBox="0 0 121 44">
  <g id="app-store-icon" transform="translate(-142.25 -5305)">
    <g id="Rectangle_41" data-name="Rectangle 41" transform="translate(142.25 5305)" fill="#fff" stroke="#707070" stroke-width="1">
      <rect width="121" height="44" rx="5" stroke="none"/>
      <rect x="0.5" y="0.5" width="120" height="43" rx="4.5" fill="none"/>
    </g>
    <text id="App_Store" data-name="App Store" transform="translate(184.25 5332)" fill="#000105" font-size="13" font-family="Poppins-Regular, Poppins" letter-spacing="0.02em"><tspan x="0" y="0">App Store</tspan></text>
    <g id="apple_icon" transform="translate(145.935 5310.626)">
      <path id="Exclusion_1" data-name="Exclusion 1" d="M6.375,24.561a3.072,3.072,0,0,1-2.1-1.005,13.605,13.605,0,0,1-1.685-2.1A15.493,15.493,0,0,1,.2,15.53a9.711,9.711,0,0,1,.825-6.453A6.263,6.263,0,0,1,3.19,6.848,5.793,5.793,0,0,1,6.11,6h.058a6.85,6.85,0,0,1,2.471.632,4.662,4.662,0,0,0,1.523.438,4.744,4.744,0,0,0,1.469-.431,7.93,7.93,0,0,1,2.841-.715c.132,0,.264.007.392.019a6.177,6.177,0,0,1,2.005.438,5.418,5.418,0,0,1,2.487,2l-.017.011A5.5,5.5,0,0,0,16.7,13.051a5.215,5.215,0,0,0,1.587,3.812,5.608,5.608,0,0,0,1.7,1.151l.008,0-.009.029A13.624,13.624,0,0,1,18.3,21.512c-.957,1.4-2.041,2.984-3.758,3.016h-.075a4.228,4.228,0,0,1-1.825-.459,4.91,4.91,0,0,0-2.155-.516,5.2,5.2,0,0,0-2.257.533,4.659,4.659,0,0,1-1.767.474ZM10.216,5.67c-.083,0-.166,0-.247-.009a5.137,5.137,0,0,1,1.3-3.8A5.481,5.481,0,0,1,14.891,0a5.422,5.422,0,0,1-1.279,3.921A4.619,4.619,0,0,1,10.216,5.67Z" transform="translate(8.315 4.374)"/>
    </g>
  </g>
</svg>
