<svg xmlns="http://www.w3.org/2000/svg" width="108.823" height="77.742" viewBox="0 0 108.823 77.742">
  <g id="chilli" transform="translate(-143.137 -197.642)">
    <path id="Path_18" data-name="Path 18" d="M212.31,319.235a72.473,72.473,0,0,0-9.566,7.894c-1.061,1.007-1.6,1.534-3.878,3.766-16.26,15.938-27.47,21.84-53.528,23.192a2.322,2.322,0,0,0,.241,4.637c27.324-1.418,39.531-7.846,56.537-24.512,2.258-2.213,2.79-2.732,3.827-3.717a68.036,68.036,0,0,1,8.964-7.411c8.253-5.567,15.728-5.741,21.26,2.46a2.321,2.321,0,0,0,3.849-2.6c-7.269-10.777-17.59-10.536-27.705-3.713Z" transform="translate(0 -89.307)" fill-rule="evenodd"/>
    <path id="Path_19" data-name="Path 19" d="M233.086,374.391c10.116-6.823,14.2-16.3,6.936-27.079a2.321,2.321,0,1,0-3.849,2.6c5.532,8.2,2.571,15.067-5.683,20.633-19.217,12.963-55.619,19.273-84.176,8.068a2.321,2.321,0,1,0-1.7,4.322c30.089,11.807,68.061,5.224,88.468-8.54Z" transform="translate(-0.005 -113.672)" fill-rule="evenodd"/>
    <path id="Path_20" data-name="Path 20" d="M545.01,323.769a27.36,27.36,0,0,0,7.578-6.9,2.322,2.322,0,0,0-3.768-2.713,22.814,22.814,0,0,1-6.113,5.584A8.827,8.827,0,0,1,539,320.982a2.321,2.321,0,1,0,.321,4.631,13.352,13.352,0,0,0,5.693-1.845Z" transform="translate(-301.066 -88.359)" fill-rule="evenodd"/>
    <path id="Path_21" data-name="Path 21" d="M223.261,455.521a2.321,2.321,0,1,0,.245-4.636,70.878,70.878,0,0,1-14.864-2,2.321,2.321,0,1,0-1.293,4.459,74.459,74.459,0,0,0,15.911,2.175Z" transform="translate(-47.823 -192.06)" fill-rule="evenodd"/>
    <path id="Path_22" data-name="Path 22" d="M285.148,223.088c-9.192-9.192-19.277-6.987-27.905,1.641a115.217,115.217,0,0,0-10.243,12c-.63.822-.984,1.288-2.31,3.034-12.867,16.954-20.78,24.371-37.658,32.1a2.321,2.321,0,0,0,1.933,4.221c17.714-8.109,26.133-16,39.422-33.512,1.321-1.739,1.673-2.2,2.3-3.015a110.96,110.96,0,0,1,9.842-11.544c7.039-7.04,14.344-8.637,21.339-1.641,5.912,5.912,5.694,11.933,1.118,18.15a2.321,2.321,0,1,0,3.739,2.752c5.827-7.915,6.136-16.476-1.573-24.185Z" transform="translate(-47.825 -14.917)" fill-rule="evenodd"/>
    <path id="Path_23" data-name="Path 23" d="M534.757,209.159a27.291,27.291,0,0,0,6.121-8.223,2.321,2.321,0,0,0-4.216-1.944,20.477,20.477,0,0,1-1.077,1.95,20.174,20.174,0,0,1-3.858,4.7,8.826,8.826,0,0,1-3.405,1.93,2.321,2.321,0,1,0,1.2,4.485,13.357,13.357,0,0,0,5.236-2.9Z" transform="translate(-293.239)" fill-rule="evenodd"/>
  </g>
</svg>
