<svg xmlns="http://www.w3.org/2000/svg" width="19" height="19.384" viewBox="0 0 19 19.384">
  <path id="coin2" d="M-8796.284-667.4a10.52,10.52,0,0,0,3.774-3.315h2.518a7.511,7.511,0,0,1-6.211,3.315Zm-10.947-9.692c0-8.544,8.557-12.88,13.464-6.886a11.233,11.233,0,0,1,0,13.773,6.983,6.983,0,0,1-5.442,2.781C-8803.281-667.422-8807.231-671.284-8807.231-677.089Zm15.1,5.611a11.358,11.358,0,0,0,1.132-3.316h2.643a8.66,8.66,0,0,1-1.258,3.316Zm1.258-3.953v-3.316h2.643v3.316Zm-16.357-1.658h0Zm16.231-2.3a13.85,13.85,0,0,0-1.132-3.443h2.517a10.22,10.22,0,0,1,1.258,3.443Zm-1.51-4.081h0a10.51,10.51,0,0,0-3.774-3.316,7.509,7.509,0,0,1,6.292,3.316Z" transform="translate(8807.231 686.781)" fill="#7f7f7f"/>
</svg>
