<svg xmlns="http://www.w3.org/2000/svg" width="20.471" height="20.884" viewBox="0 0 20.471 20.884">
  <path id="coin" d="M-8795.437-665.9a11.342,11.342,0,0,0,4.066-3.572h2.712a8.092,8.092,0,0,1-6.691,3.572Zm-11.795-10.442c0-9.206,9.219-13.877,14.506-7.419a12.1,12.1,0,0,1,0,14.839,7.522,7.522,0,0,1-5.863,3C-8802.976-665.924-8807.231-670.085-8807.231-676.339Zm16.269,6.046a12.234,12.234,0,0,0,1.22-3.572h2.847a9.329,9.329,0,0,1-1.355,3.572Zm1.355-4.259v-3.572h2.847v3.572Zm-17.624-1.787h0Zm17.488-2.473a14.915,14.915,0,0,0-1.22-3.71h2.711a11.009,11.009,0,0,1,1.355,3.71Zm-1.627-4.4h0a11.331,11.331,0,0,0-4.066-3.572,8.089,8.089,0,0,1,6.778,3.572Z" transform="translate(8807.231 686.781)"/>
</svg>
