<svg xmlns="http://www.w3.org/2000/svg" width="14.656" height="13.19" viewBox="0 0 14.656 13.19">
  <path id="comment" d="M165,176.21H157.67a3.715,3.715,0,0,0-3.664,3.759v8.942a.489.489,0,0,0,.838.342l1.954-2.01H165a3.715,3.715,0,0,0,3.664-3.759v-3.515A3.715,3.715,0,0,0,165,176.21Zm0,6.595h0a.977.977,0,1,1,.691-.286.977.977,0,0,1-.691.286Zm-2.687-.977a.977.977,0,1,1-.286-.691A.977.977,0,0,1,162.311,181.828Zm-4.641-.977a.977.977,0,1,1-.691.286A.977.977,0,0,1,157.67,180.851Z" transform="translate(-154.006 -176.21)"/>
</svg>
