<svg xmlns="http://www.w3.org/2000/svg" width="17.867" height="19.317" viewBox="0 0 17.867 19.317">
  <path id="cup_kitchen_food_icon" d="M25.121,8.578a3.359,3.359,0,0,0-3.841-.512A.979.979,0,0,0,21,8H9a1,1,0,0,0-.962,1.275L9.1,13H9a1,1,0,0,0-.962,1.275L9.1,18H9a1,1,0,0,0-.962,1.275l2,7A1,1,0,0,0,11,27h8a1,1,0,0,0,.962-.725l.293-1.026a10.3,10.3,0,0,0,2.961-1.05,5.182,5.182,0,0,0,2.261-2.108,3.09,3.09,0,0,0-.355-3.514,2.643,2.643,0,0,0-.477-.4,4.207,4.207,0,0,0,.832-1.088,3.09,3.09,0,0,0-.355-3.514,2.643,2.643,0,0,0-.477-.4,4.205,4.205,0,0,0,.832-1.088,3.09,3.09,0,0,0-.356-3.509ZM18.246,25H11.754l-1.428-5h9.348Zm.57-7H11.184l-.857-3h9.348Zm0-5H11.184l-.857-3h9.348ZM23.7,21.169a3.339,3.339,0,0,1-1.437,1.271,8.471,8.471,0,0,1-1.377.592l.843-2.952a3.058,3.058,0,0,1,.309-.167,1.511,1.511,0,0,1,1.624.037A1.133,1.133,0,0,1,23.7,21.169Zm0-5a3.336,3.336,0,0,1-1.435,1.27A8.589,8.589,0,0,1,20.959,18H20.9l.835-2.921a3.038,3.038,0,0,1,.309-.167,1.511,1.511,0,0,1,1.624.037,1.133,1.133,0,0,1,.032,1.22Zm0-5a3.336,3.336,0,0,1-1.435,1.27A8.589,8.589,0,0,1,20.959,13H20.9l.835-2.921a3.038,3.038,0,0,1,.309-.167,1.511,1.511,0,0,1,1.624.037,1.133,1.133,0,0,1,.032,1.22Z" transform="translate(-7.999 -7.683)" fill="#a22"/>
</svg>
