<svg xmlns="http://www.w3.org/2000/svg" width="35" height="35" viewBox="0 0 35 35">
  <g id="download-icon" transform="translate(-482 -1919)">
    <circle id="Ellipse_12" data-name="Ellipse 12" cx="17.5" cy="17.5" r="17.5" transform="translate(482 1919)" fill="#a22"/>
    <path id="Union_3" data-name="Union 3" d="M-1040.062-1726.339a2.344,2.344,0,0,1-2.344-2.344v-3.437a.469.469,0,0,1,.469-.469.469.469,0,0,1,.469.469v3.437a1.406,1.406,0,0,0,1.406,1.407h15.313a1.406,1.406,0,0,0,1.406-1.407v-3.437a.469.469,0,0,1,.469-.469.468.468,0,0,1,.469.469v3.437a2.344,2.344,0,0,1-2.344,2.344Zm7.563-5.325-.039-.011a.282.282,0,0,1-.092-.038l-.037-.02a.462.462,0,0,1-.069-.056l-4.2-4.2a.468.468,0,0,1,.039-.62.468.468,0,0,1,.619-.038l3.4,3.4v-12.619a.469.469,0,0,1,.469-.468.468.468,0,0,1,.469.468v12.619l3.4-3.4a.47.47,0,0,1,.472-.17.471.471,0,0,1,.355.355.469.469,0,0,1-.17.473l-4.2,4.2a.429.429,0,0,1-.072.06l-.033.019c-.015.009-.031.018-.047.025l-.047.014-.041.013a.472.472,0,0,1-.091.009A.476.476,0,0,1-1032.5-1731.664Z" transform="translate(1531.81 3671.678)" fill="#fff" stroke="#fff" stroke-width="0.5"/>
  </g>
</svg>
