<svg xmlns="http://www.w3.org/2000/svg" width="121" height="44" viewBox="0 0 121 44">
  <g id="google-play-icon" transform="translate(-273.25 -5305)">
    <g id="Rectangle_42" data-name="Rectangle 42" transform="translate(273.25 5305)" fill="#fff" stroke="#707070" stroke-width="1">
      <rect width="121" height="44" rx="5" stroke="none"/>
      <rect x="0.5" y="0.5" width="120" height="43" rx="4.5" fill="none"/>
    </g>
    <path id="Exclusion_2" data-name="Exclusion 2" d="M12.576,23.487a1.365,1.365,0,0,1-1.364-1.364V19.244a1.386,1.386,0,0,1,.053-.38H8.734a1.385,1.385,0,0,1,.054.38v2.879a1.364,1.364,0,0,1-2.728,0V19.244a1.39,1.39,0,0,1,.054-.38H5.076a1.441,1.441,0,0,1-1.439-1.439v-10H16.365v10a1.441,1.441,0,0,1-1.44,1.439H13.886a1.358,1.358,0,0,1,.054.38v2.879A1.365,1.365,0,0,1,12.576,23.487Zm6.061-7.5a1.365,1.365,0,0,1-1.364-1.364V8.789a1.363,1.363,0,1,1,2.726,0v5.833A1.365,1.365,0,0,1,18.637,15.985Zm-17.274,0A1.365,1.365,0,0,1,0,14.621V8.789a1.364,1.364,0,1,1,2.728,0v5.833A1.365,1.365,0,0,1,1.364,15.985Zm15-9.47H3.637a4.529,4.529,0,0,1,.894-2.668,6.01,6.01,0,0,1,2.341-1.88l-.256-.384L6.362,1.2,5.8.353A.227.227,0,0,1,6.174.1l.608.913.255.383.258.388a7.609,7.609,0,0,1,5.408,0l.26-.388.255-.383L13.827.1a.228.228,0,0,1,.316-.063.229.229,0,0,1,.062.315l-.567.849-.252.379-.256.384a6.017,6.017,0,0,1,2.341,1.881,4.53,4.53,0,0,1,.894,2.667ZM12.727,3.334a.682.682,0,1,0,.683.681A.682.682,0,0,0,12.727,3.334Zm-5.454,0a.682.682,0,1,0,.682.681A.682.682,0,0,0,7.273,3.334Z" transform="translate(282.249 5315)"/>
    <text id="Google_Play" data-name="Google Play" transform="translate(310.25 5332)" fill="#000105" font-size="12" font-family="Poppins-Regular, Poppins" letter-spacing="0.02em"><tspan x="0" y="0">Google Play</tspan></text>
  </g>
</svg>
