<svg xmlns="http://www.w3.org/2000/svg" width="98.349" height="110.779" viewBox="0 0 98.349 110.779">
  <g id="turmeric2" transform="translate(-209.137 -188.045)">
    <path id="Path_49" data-name="Path 49" d="M419.1,431.452a6.193,6.193,0,0,0-3.915-1.4c-2.4.25.1,1.8.775,2.464a28.248,28.248,0,0,1,4.989,6.364c.493.5.485,3.168,1.9,2.377.987-.551.784-2.557.664-3.416a10.208,10.208,0,0,0-4.415-6.387Z" transform="translate(-144.602 -170.672)"/>
    <path id="Path_50" data-name="Path 50" d="M248.947,243.047a30.028,30.028,0,0,1,10.863-10.5,33.837,33.837,0,0,0,5.757-4.348c2.068-1.748,4.232-3.376,6.4-4.993,7.4-5.512,17.947-12.2,17.83-22.588-.063-5.389-5.351-7.137-9.547-8.917-1.063-.447-2.419-1.485-3.727-2a.445.445,0,0,0-.031-.033c-4.673-3.7-9.812-.433-13.15,3.147-3.813,4.088-8.975,6.074-13.61,9.036a47.267,47.267,0,0,0-10.864,9.949c-3.169,3.843-5.992,7.955-9.075,11.867-3.253,4.132-6.218,8.431-7.911,13.455-1.71,5.067-4.491,9.326-7.372,13.785-2.681,4.151-6.176,9.378-5.21,14.57.731,3.93,5.376,9.945,9.823,6.367,1.356-1.091,1.9-2.885,2.629-4.4a9.15,9.15,0,0,1,4.76-4.39c4.691-2.332,9.858-3.681,13.682-7.467,3.648-3.611,5.964-8.3,8.75-12.549ZM232.6,255.673c-4.6,2.424-11.423,3.706-14.508,8.221a27.683,27.683,0,0,0-2.055,4.411c-.374.813-.657.267-.777-.347a27.826,27.826,0,0,1-.328-4.766,21.339,21.339,0,0,1-.025-3.984,10.666,10.666,0,0,1,2.056-3.9c1.279-1.9,2.735-3.676,3.995-5.59a5.077,5.077,0,0,1,3.863-.374,13.233,13.233,0,0,1,2.432,1.368c.722.42,3.147,2.16,3.954,1.195.827-.979-1.57-2.845-2.116-3.386a8.147,8.147,0,0,0-5.983-2.594c.7-1.415,1.341-2.863,1.947-4.318,2.036-4.894,3.938-9.728,7.136-14,1.9-2.548,5.313-9.827,9.734-7.4a20.969,20.969,0,0,1,3.1,2.427c.512.426,2.627,1.552,2.24-.059a9.978,9.978,0,0,0-3-4.521,6.829,6.829,0,0,0-3.912-1.8c.257-.33.5-.671.758-1a41.871,41.871,0,0,1,11.585-10.106,112.473,112.473,0,0,0,10.445-6.575,26.665,26.665,0,0,1,6.843,3.043c.723.469,1.78,2.193,2.809,1.606,1.159-.662-.325-2.94-.768-3.556a9.741,9.741,0,0,0-5.868-3.425c1.885-1.386,4.053-2.651,6.058-2.363.2.029,13.718,3.35,12.169,10.786-.878,4.217-5.151,7.316-8.339,9.661-2.445,1.8-4.776,3.7-7.084,5.639.007-.078-.863-5.3-2.363-7.036a6.869,6.869,0,0,0-3.653-2.706c-2.588-.482-.6,1.624-.028,2.545a28.139,28.139,0,0,1,3.327,7.368,10.657,10.657,0,0,1,.221,1.924c-.873.737-1.746,1.477-2.625,2.21-.466.388-.946.757-1.429,1.121a7.314,7.314,0,0,0-.607-1.373c-.653-1.124-1.746-1.6-2.717-2.561a3.01,3.01,0,0,0-2.188-.059c-1.247,1.129.145,1.56.454,2.331.526,1.314,1.836,2.191,2.893,3.135.009.009.025.022.033.031-.965.652-1.943,1.286-2.913,1.924a6.039,6.039,0,0,0-2.946-2.549c-.656-.238-1.76-.662-2.355-.054-1.213,1.241.487,1.629.786,2.4.328.854,1.237,1.345,1.852,2.017-.573.41-1.137.835-1.687,1.275a2.537,2.537,0,0,0-1.987-1.151c-1.132-.2-1.631,1.5-1.1,2.3a6.407,6.407,0,0,0,.551,1.213,45.075,45.075,0,0,0-4.727,5.818,10.015,10.015,0,0,0-.907-2.253c-.843-1.526-2.617-3.21-4.49-3.224-.782-.006-3.107-.18-2.8,1.256.186.888,1.544,1.125,2.2,1.5,1.954,1.13,4.4,4.9,4.47,4.976-.626.964-1.244,1.937-1.855,2.907-2.568,4.086-5.39,8.125-9.763,10.429Z"/>
    <path id="Path_51" data-name="Path 51" d="M367.7,320.141a39.675,39.675,0,0,0-4.18-5.935,15.662,15.662,0,0,0-3.34-3.47c-2.583-1.617-8.663-3.786-13.073-3.1-5.415.843-8.891,5.422-12.546,9.078-1.9,1.9-4.251,3.737-5.7,6.026a17.14,17.14,0,0,0-2.094,6.782,30.969,30.969,0,0,1-1.388,6.555,16.484,16.484,0,0,1-3.93,5.538c-3.45,3.479-7.122,6.532-10.326,10.259-3.063,3.561-6.777,7.08-8.868,11.339-2.43,4.948-4.783,14.23.672,18.12,3.806,2.71,9.5,1.76,13.637.513,4.9-1.472,9.569-3.7,14.359-5.482,8.865-3.3,18.927-8.118,24.546-16.063,2.932-4.147,4.415-9.151,7.619-13.124,3.267-4.049,7.284-7.5,8.049-12.952.69-4.909-1.029-9.869-3.441-14.086Zm-9.572,26.17c.195-3.259-.281-6.453-3.19-8.644a11.663,11.663,0,0,0-5.424-2.345c-.528-.07-2.414-.145-1.492.9.843.96,2.272,1.524,3.3,2.294,1.882,1.688,3.448,3.2,3.672,5.85.1,1.171.032,2.359.146,3.53.031.344.039,1.181.117,2.053-.294.409-.578.82-.847,1.235-1.111,1.72-1.868,3.628-2.992,5.344a29.434,29.434,0,0,1-4.279,5.092,46.842,46.842,0,0,1-10.82,7.46c-.408.211-.823.405-1.235.61a5.471,5.471,0,0,0-1.372-3.6c-.451-.51-1.25-1.262-2-1.092-1.477.333-.612,1.52-.612,2.347.444,1.2.767,2.466,1.262,3.648q-1.357.618-2.733,1.2a4.483,4.483,0,0,0,.015-.587,3.644,3.644,0,0,0-1.349-2.636c-.618-.46-1.375-.917-2.06-.243-.729.694-.274,1.011-.274,1.785a13.287,13.287,0,0,0,.843,2.843q-1.39.554-2.785,1.09c-.393.15-.789.313-1.192.475a5.86,5.86,0,0,0-1.145-4.287c-.492-.614-1.623-1.872-2.469-1.033a3.653,3.653,0,0,0-.059,2.3,21.522,21.522,0,0,1,.422,4.358c-.973.383-1.96.741-2.956,1.027a5.771,5.771,0,0,0-.6-4.943c-.421-.606-1.233-1.559-2.043-.912-.774.573-.459,1.286-.459,2.071,0,1.4.1,4.337.1,4.384a11.5,11.5,0,0,1-1.334.066c-7-.107-6.494-8.229-4.569-12.906,1.452-3.529,3.956-6.585,6.455-9.488,1.733-.167,3.527-.294,5.072.585a8.134,8.134,0,0,1,2.089,2.223c.531.669,2.332,3.21,3.426,2.568s-.534-3.206-.868-3.9c-1.5-2.916-3.7-4.852-6.9-4.7,1.426-1.6,2.88-3.17,4.4-4.681,1.957-1.941,4.147-3.669,5.974-5.733a20.671,20.671,0,0,0,4.838-11.413c.275-2.141.427-4.09,1.75-5.889a21.17,21.17,0,0,1,4.331-3.951c3.058-.139,5.207,1.059,7.939,2.353.6.282,2.89.882,2.16-.591a10.427,10.427,0,0,0-3.979-3.745,9.137,9.137,0,0,0-2.843-1.063c1.809-1.871,3.608-3.794,5.908-4.867a7.44,7.44,0,0,1,5.255-.3,26.975,26.975,0,0,1,3.081,1.365c.717.883,1.795,1.715,2.266,2.261a33.918,33.918,0,0,1,7.019,12.1c2.236,7.506-2.513,12.767-6.964,18.113Z" transform="translate(-63.804 -84.255)"/>
  </g>
</svg>
