<svg xmlns="http://www.w3.org/2000/svg" width="28" height="22.749" viewBox="0 0 28 22.749">
  <g id="user-icons2" transform="translate(0 -3.001)">
    <path id="Union_2" data-name="Union 2" d="M-1276.125-1381.252a.875.875,0,0,1-.875-.875,7.008,7.008,0,0,1,7-7,7.008,7.008,0,0,1,7,7,.875.875,0,0,1-.875.875Zm.948-1.75h10.354a5.257,5.257,0,0,0-5.177-4.374A5.258,5.258,0,0,0-1275.177-1383Zm13.052-1.75a.875.875,0,0,1-.875-.875.875.875,0,0,1,.875-.875h4.3a5.208,5.208,0,0,0-1.466-2.837,5.215,5.215,0,0,0-3.712-1.538.874.874,0,0,1-.875-.875.874.874,0,0,1,.875-.875,6.952,6.952,0,0,1,4.949,2.05,6.954,6.954,0,0,1,2.051,4.95.876.876,0,0,1-.875.875Zm-21,0a.873.873,0,0,1-.618-.257.873.873,0,0,1-.257-.618,7.008,7.008,0,0,1,7-7,.874.874,0,0,1,.875.875.874.874,0,0,1-.875.875,5.259,5.259,0,0,0-5.177,4.375h4.3a.874.874,0,0,1,.875.875.875.875,0,0,1-.875.875Zm7.875-10.5a5.256,5.256,0,0,1,5.25-5.25,5.256,5.256,0,0,1,5.25,5.25A5.256,5.256,0,0,1-1270-1390,5.256,5.256,0,0,1-1275.251-1395.251Zm1.751,0a3.5,3.5,0,0,0,3.5,3.5,3.5,3.5,0,0,0,3.5-3.5,3.5,3.5,0,0,0-3.5-3.5A3.5,3.5,0,0,0-1273.5-1395.251Zm9.625.875a.874.874,0,0,1,.875-.875,3.521,3.521,0,0,0,3.42-2.755,3.522,3.522,0,0,0-1.964-3.928,3.52,3.52,0,0,0-4.255,1.083.876.876,0,0,1-1.225.176.875.875,0,0,1-.175-1.225,5.265,5.265,0,0,1,2.9-1.938,5.265,5.265,0,0,1,3.479.314,5.265,5.265,0,0,1,2.512,2.426,5.265,5.265,0,0,1,.434,3.465,5.27,5.27,0,0,1-1.836,2.971A5.267,5.267,0,0,1-1263-1393.5.875.875,0,0,1-1263.875-1394.376Zm-16.418-.287a5.27,5.27,0,0,1-1.836-2.971,5.27,5.27,0,0,1,.434-3.465,5.267,5.267,0,0,1,2.512-2.426,5.265,5.265,0,0,1,3.478-.314,5.268,5.268,0,0,1,2.906,1.938.875.875,0,0,1-.176,1.225.874.874,0,0,1-1.224-.176,3.521,3.521,0,0,0-4.256-1.083,3.52,3.52,0,0,0-1.964,3.928,3.521,3.521,0,0,0,3.419,2.755.874.874,0,0,1,.875.875.875.875,0,0,1-.875.875A5.269,5.269,0,0,1-1280.294-1394.663Z" transform="translate(1284 1407.001)" fill="#a22"/>
  </g>
</svg>
