<svg id="facbook_icon" xmlns="http://www.w3.org/2000/svg" width="8.327" height="16.484" viewBox="0 0 8.327 16.484">
  <path id="XMLID_835_" d="M76.969,8.78h1.806v7.438a.265.265,0,0,0,.266.266h3.064a.265.265,0,0,0,.266-.266v-7.4h2.076a.266.266,0,0,0,.264-.235l.313-2.739a.265.265,0,0,0-.264-.3h-2.39V3.828c0-.517.279-.777.828-.777h1.564a.266.266,0,0,0,.266-.266V.267A.265.265,0,0,0,84.764,0H82.51a4.132,4.132,0,0,0-2.7,1.017,2.833,2.833,0,0,0-.943,2.519V5.544h-1.9a.265.265,0,0,0-.266.266v2.7a.266.266,0,0,0,.266.266Z" transform="translate(-76.703 -0.001)"/>
</svg>
