<svg xmlns="http://www.w3.org/2000/svg" width="25" height="17.556" viewBox="0 0 25 17.556">
  <g id="mail" transform="translate(-42.593 -30.594)">
    <path id="Union_1" data-name="Union 1" d="M-919.505-4386.85v-17.556h25v17.556Zm22.048-1.624-6.29-5.995-1.193,1.118a2.97,2.97,0,0,1-2.026.755,2.99,2.99,0,0,1-2.036-.761h0l-1.211-1.143-6.334,6.028Zm-20.3-1.17,6.318-6.013-6.318-5.96Zm21.511,0v-11.848l-6.269,5.874Zm-11.514-4.853a1.172,1.172,0,0,0,.8.279,1.158,1.158,0,0,0,.789-.274l8.847-8.288h-19.215Z" transform="translate(962.098 4435)" opacity="0.16"/>
  </g>
</svg>
