<svg xmlns="http://www.w3.org/2000/svg" width="1920" height="462.246" viewBox="0 0 1920 462.246">
  <g id="Newsletter" transform="translate(-29 -7092.754)">
    <path id="Path_81" data-name="Path 81" d="M168,7142s477.661-62,957.661-62S2088,7142,2088,7142v378H168Z" transform="translate(2117 14635) rotate(180)" fill="#faf1e2"/>
    <g id="leaf_" data-name="leaf " transform="translate(811.092 7881.897) rotate(-110)" opacity="0.1">
      <path id="leaf_2" data-name="leaf " d="M683.733,439.917s-17.259,18.441-17.746,38.665,17.781,27.892,17.781,27.892,16.944-8.365,16.944-27.892S683.733,439.917,683.733,439.917Z" transform="translate(-84 2.941)" fill="none" stroke="#707070" stroke-width="2"/>
      <line id="Line_1" data-name="Line 1" y2="73.216" transform="translate(599.768 438.5)" fill="none" stroke="#707070" stroke-width="2"/>
      <line id="Line_2" data-name="Line 2" x1="10.459" y1="12.133" transform="translate(589.308 484.521)" fill="none" stroke="#707070" stroke-width="2"/>
      <path id="Path_14" data-name="Path 14" d="M0,1.577,6.764-7" transform="translate(599.768 480.434)" fill="none" stroke="#707070" stroke-width="2"/>
      <line id="Line_4" data-name="Line 4" x1="5.02" y1="8.786" transform="translate(594.747 458.582)" fill="none" stroke="#707070" stroke-width="2"/>
    </g>
    <g id="leaf_3" data-name="leaf " transform="matrix(0.875, 0.485, -0.485, 0.875, 1355.793, 6668.095)" opacity="0.1">
      <path id="leaf_4" data-name="leaf " d="M683.733,439.917s-17.259,18.441-17.746,38.665,17.781,27.892,17.781,27.892,16.944-8.365,16.944-27.892S683.733,439.917,683.733,439.917Z" transform="translate(-84 2.941)" fill="none" stroke="#707070" stroke-width="2"/>
      <line id="Line_1-2" data-name="Line 1" y2="73.216" transform="translate(599.768 438.5)" fill="none" stroke="#707070" stroke-width="2"/>
      <line id="Line_2-2" data-name="Line 2" x1="10.459" y1="12.133" transform="translate(589.308 484.521)" fill="none" stroke="#707070" stroke-width="2"/>
      <path id="Path_14-2" data-name="Path 14" d="M0,1.577,6.764-7" transform="translate(599.768 480.434)" fill="none" stroke="#707070" stroke-width="2"/>
      <line id="Line_4-2" data-name="Line 4" x1="5.02" y1="8.786" transform="translate(594.747 458.582)" fill="none" stroke="#707070" stroke-width="2"/>
    </g>
    <g id="leaf_5" data-name="leaf " transform="matrix(-0.407, 0.914, -0.914, -0.407, 1201.245, 7112.576)" opacity="0.1">
      <path id="leaf_6" data-name="leaf " d="M675.218,439.917s-8.983,9.6-9.236,20.124,9.255,14.517,9.255,14.517,8.819-4.354,8.819-14.517S675.218,439.917,675.218,439.917Z" transform="translate(-84 0.852)" fill="none" stroke="#707070" stroke-width="2"/>
      <line id="Line_1-3" data-name="Line 1" y2="38.107" transform="translate(591.237 438.5)" fill="none" stroke="#707070" stroke-width="2"/>
      <line id="Line_2-3" data-name="Line 2" x1="5.444" y1="6.315" transform="translate(585.793 462.453)" fill="none" stroke="#707070" stroke-width="2"/>
      <path id="Path_14-3" data-name="Path 14" d="M0-2.536,3.52-7" transform="translate(591.237 463.682)" fill="none" stroke="#707070" stroke-width="2"/>
      <line id="Line_4-3" data-name="Line 4" x1="2.613" y1="4.573" transform="translate(588.624 448.952)" fill="none" stroke="#707070" stroke-width="2"/>
    </g>
    <g id="leaf_7" data-name="leaf " transform="translate(1367.703 6731.665) rotate(51)" opacity="0.19">
      <path id="leaf_8" data-name="leaf " d="M683.733,439.917s-17.259,18.441-17.746,38.665,17.781,27.892,17.781,27.892,16.944-8.365,16.944-27.892S683.733,439.917,683.733,439.917Z" transform="translate(-84 2.941)" fill="none" stroke="#707070" stroke-width="2"/>
      <line id="Line_1-4" data-name="Line 1" y2="73.216" transform="translate(599.768 438.5)" fill="none" stroke="#707070" stroke-width="2"/>
      <line id="Line_2-4" data-name="Line 2" x1="10.459" y1="12.133" transform="translate(589.308 484.521)" fill="none" stroke="#707070" stroke-width="2"/>
      <path id="Path_14-4" data-name="Path 14" d="M0,1.577,6.764-7" transform="translate(599.768 480.434)" fill="none" stroke="#707070" stroke-width="2"/>
      <line id="Line_4-4" data-name="Line 4" x1="5.02" y1="8.786" transform="translate(594.747 458.582)" fill="none" stroke="#707070" stroke-width="2"/>
    </g>
    <g id="leaf_9" data-name="leaf " transform="matrix(0.669, -0.743, 0.743, 0.669, -70.459, 7250.414)" opacity="0.19">
      <path id="leaf_10" data-name="leaf " d="M679.039,439.917s-12.7,13.566-13.055,28.443,13.08,20.518,13.08,20.518,12.465-6.154,12.465-20.518S679.039,439.917,679.039,439.917Z" transform="translate(-84 1.789)" fill="none" stroke="#707070" stroke-width="2"/>
      <line id="Line_1-5" data-name="Line 1" y2="53.86" transform="translate(595.064 438.5)" fill="none" stroke="#707070" stroke-width="2"/>
      <line id="Line_2-5" data-name="Line 2" x1="7.694" y1="8.925" transform="translate(587.37 472.355)" fill="none" stroke="#707070" stroke-width="2"/>
      <path id="Path_14-5" data-name="Path 14" d="M0-.691,4.976-7" transform="translate(595.064 471.199)" fill="none" stroke="#707070" stroke-width="2"/>
      <line id="Line_4-5" data-name="Line 4" x1="3.693" y1="6.463" transform="translate(591.371 453.273)" fill="none" stroke="#707070" stroke-width="2"/>
    </g>
    <g id="leaf_11" data-name="leaf " transform="matrix(0.777, -0.629, 0.629, 0.777, -501.214, 7377.075)" opacity="0.1">
      <path id="leaf_12" data-name="leaf " d="M683.733,439.917s-17.259,18.441-17.746,38.665,17.781,27.892,17.781,27.892,16.944-8.365,16.944-27.892S683.733,439.917,683.733,439.917Z" transform="translate(-84 2.941)" fill="none" stroke="#707070" stroke-width="2"/>
      <line id="Line_1-6" data-name="Line 1" y2="73.216" transform="translate(599.768 438.5)" fill="none" stroke="#707070" stroke-width="2"/>
      <line id="Line_2-6" data-name="Line 2" x1="10.459" y1="12.133" transform="translate(589.308 484.521)" fill="none" stroke="#707070" stroke-width="2"/>
      <path id="Path_14-6" data-name="Path 14" d="M0,1.577,6.764-7" transform="translate(599.768 480.434)" fill="none" stroke="#707070" stroke-width="2"/>
      <line id="Line_4-6" data-name="Line 4" x1="5.02" y1="8.786" transform="translate(594.747 458.582)" fill="none" stroke="#707070" stroke-width="2"/>
    </g>
  </g>
</svg>
