<svg xmlns="http://www.w3.org/2000/svg" width="88.855" height="70.689" viewBox="0 0 88.855 70.689">
  <g id="safe_online_payment" transform="translate(-160.221 -170.587)">
    <path id="Path_152" data-name="Path 152" d="M259.646,262.843H198.163a6.411,6.411,0,0,1-6.412-6.427V218.671a7.763,7.763,0,0,1,7.762-7.763h42.9v3.106h-42.9a4.658,4.658,0,0,0-4.658,4.658v37.744a3.308,3.308,0,0,0,3.307,3.307h61.483a3.106,3.106,0,0,0,3.106-3.105v-18.2h3.106v18.166a6.21,6.21,0,0,1-6.211,6.257Z" transform="translate(-24.914 -31.86)"/>
    <path id="Path_153" data-name="Path 153" d="M240.2,457.03h-71.42a8.554,8.554,0,0,1-8.555-8.554v-3.292a1.553,1.553,0,0,1,1.552-1.553h84.648a1.553,1.553,0,0,1,1.552,1.553v4.083a7.763,7.763,0,0,1-7.779,7.763Zm-76.855-10.294v1.739a5.451,5.451,0,0,0,5.45,5.45h71.42a4.658,4.658,0,0,0,4.658-4.658v-2.531Z" transform="translate(0 -215.753)"/>
    <path id="Path_154" data-name="Path 154" d="M442.439,211.731a4.666,4.666,0,0,1-2.391-.668l-4.782-2.842h0a19.486,19.486,0,0,1-9.472-16.659V179.328a3.105,3.105,0,0,1,1.972-2.9l13.508-5.621a3.108,3.108,0,0,1,2.282,0l13.352,4.953a3.1,3.1,0,0,1,2.019,2.9v12.949a19.532,19.532,0,0,1-9.316,16.675l-4.658,2.826a4.67,4.67,0,0,1-2.515.621Zm0-38.055L428.9,179.328v12.234a16.317,16.317,0,0,0,7.965,13.974l4.782,2.857h0a1.555,1.555,0,0,0,1.553,0l4.658-2.811a16.428,16.428,0,0,0,7.887-13.974V178.614Z" transform="translate(-209.851 0)"/>
    <path id="Path_155" data-name="Path 155" d="M469.952,238.839a1.553,1.553,0,0,1-.932-.311l-5.217-3.944h0a1.553,1.553,0,0,1,1.879-2.469l3.944,2.981,8.276-11.629h0a1.553,1.553,0,1,1,2.531,1.8l-9.207,12.918a1.552,1.552,0,0,1-1.04.636Z" transform="translate(-239.444 -41.269)"/>
  </g>
</svg>
