<svg xmlns="http://www.w3.org/2000/svg" width="70.024" height="70" viewBox="0 0 70.024 70">
  <path id="shipping" d="M198.657,167.62a31.043,31.043,0,0,0-.847,62.074h.05l1.99,1.194,3.581,5.994a1.668,1.668,0,0,0,2.512.3l2.935-2.959a1.63,1.63,0,0,0,.422-1.543l-.87-3.233,8.878-7.635,7.635,13.752a1.668,1.668,0,0,0,2.512.348l3.805-3.805a1.622,1.622,0,0,0,.422-1.466l-4.228-18.777s8.234-8.664,8.317-8.759a7.811,7.811,0,0,0,1.779-3.974,4.841,4.841,0,0,0-5.944-5.968,8.278,8.278,0,0,0-2.287.721,31.05,31.05,0,0,0-30.664-26.261Zm-1.592,4.2v10.569a54.285,54.285,0,0,0-9.2,1.019,31.365,31.365,0,0,1,1.791-4.277c2.1-4.088,4.722-6.595,7.411-7.312Zm3.183,0c2.689.717,5.31,3.223,7.411,7.312a31.383,31.383,0,0,1,1.791,4.253,54.172,54.172,0,0,0-9.2-1Zm6.118.075a27.857,27.857,0,0,1,19.049,19.024,23.405,23.405,0,0,0-6.863-4.626,38.007,38.007,0,0,0-5.471-2.014,36.465,36.465,0,0,0-2.587-6.615,22.233,22.233,0,0,0-4.128-5.769Zm-15.444.025a22.254,22.254,0,0,0-4.1,5.745,36.519,36.519,0,0,0-2.561,6.615,36.5,36.5,0,0,0-6.59,2.536,22.263,22.263,0,0,0-5.745,4.128,27.8,27.8,0,0,1,19-19.024Zm6.143,13.652v11.49h-11.49a50.183,50.183,0,0,1,1.293-10.172,50.08,50.08,0,0,1,10.2-1.318Zm3.183,0a49.967,49.967,0,0,1,10.2,1.318,50.172,50.172,0,0,1,1.293,10.172H200.248Zm-16.861,2.313a54.321,54.321,0,0,0-.994,9.176H171.823c.72-2.687,3.228-5.312,7.312-7.411a31.392,31.392,0,0,1,4.253-1.766Zm30.539,0a33.063,33.063,0,0,1,3.283,1.293c4.586,2.135,7.466,4.989,8.256,7.809l-.075.075h-10.47a54.4,54.4,0,0,0-.994-9.176Zm20.145,8.779c.838,1.771.054,3.551-1.266,4.943l-8.234,8.684a1.619,1.619,0,0,0-.4,1.442l4.2,18.751-1.667,1.667-7.56-13.578a1.665,1.665,0,0,0-2.437-.448l-11.141,9.549a1.629,1.629,0,0,0-.5,1.617l.9,3.333-.845.87-2.76-4.6a1.606,1.606,0,0,0-.547-.547l-4.551-2.76.845-.845,3.308.9a1.631,1.631,0,0,0,1.642-.5L212.609,214a1.665,1.665,0,0,0-.448-2.413l-13.6-7.56,1.691-1.691L219,206.564a1.619,1.619,0,0,0,1.442-.4l8.739-8.285c1.4-1.352,3.145-2.013,4.89-1.215Zm-62.247,3.581h10.544a53.835,53.835,0,0,0,1.044,9.176,31.663,31.663,0,0,1-4.277-1.791c-4.089-2.1-6.595-4.7-7.312-7.387Zm13.727,0h11.515v.771l-2.238,2.263a1.668,1.668,0,0,0,.348,2.512l1.89,1.044v4.9a49.8,49.8,0,0,1-10.2-1.318,50.07,50.07,0,0,1-1.318-10.172Zm19.845,0h6.366c-.014.476-.048.949-.075,1.418Zm9.549,0h7.113l-3.183,3.034-4.029-.9c.045-.706.081-1.419.1-2.139ZM171.9,206.365a22.319,22.319,0,0,0,5.77,4.1,36.762,36.762,0,0,0,6.59,2.586,39.414,39.414,0,0,0,1.442,4.128,24.658,24.658,0,0,0,5.148,8.157,28.047,28.047,0,0,1-18.95-18.975Zm28.35,2.263,4.974,2.76q-2.41.3-4.974.373ZM187.865,213.9a53.875,53.875,0,0,0,9.2,1.019v6.565a1.6,1.6,0,0,0-.547.348l-2.238,2.239a19.538,19.538,0,0,1-5.646-8.107c-.271-.659-.53-1.354-.771-2.064Zm20.442.224-7.037,8.182-1.02-.274V214.92a54.725,54.725,0,0,0,8.057-.8Z" transform="translate(-167.62 -167.62)"/>
</svg>
