<svg xmlns="http://www.w3.org/2000/svg" width="19.922" height="17.098" viewBox="0 0 19.922 17.098">
  <path id="twitter_icon" d="M19.193,4.628a6.728,6.728,0,0,1-2.263,1.006A4.232,4.232,0,0,0,13.535,4a4.373,4.373,0,0,0-4.4,4.4,3.061,3.061,0,0,0,.063.754A11.018,11.018,0,0,1,2.283,5.131a4.146,4.146,0,0,0-.5,2.012,3.958,3.958,0,0,0,1.7,3.269,3.379,3.379,0,0,1-1.76-.5v.063a3.933,3.933,0,0,0,3.08,3.9,5.5,5.5,0,0,1-1.011.122,3.061,3.061,0,0,1-.754-.063,3.91,3.91,0,0,0,3.584,2.765,7.639,7.639,0,0,1-4.774,1.7A4.758,4.758,0,0,1,.9,18.332,10.547,10.547,0,0,0,6.809,20.1c7.041,0,10.938-5.972,11-11.189l2.012-1.133-1.887-.628Z" transform="translate(-0.4 -3.5)" fill="none" stroke="#000" stroke-linecap="round" stroke-linejoin="round" stroke-miterlimit="10" stroke-width="1"/>
</svg>
