<svg xmlns="http://www.w3.org/2000/svg" width="18.685" height="18.774" viewBox="0 0 18.685 18.774">
  <g id="whatsapp_icon" transform="translate(0)">
    <path id="Path_91" data-name="Path 91" d="M20.074,6.217A9.306,9.306,0,0,0,5.432,17.443l-1.32,4.821L9.044,20.97A9.3,9.3,0,0,0,13.489,22.1h0A9.307,9.307,0,0,0,20.074,6.217ZM13.493,20.531h0a7.721,7.721,0,0,1-3.936-1.078l-.282-.168-2.927.768L7.127,17.2l-.184-.293a7.732,7.732,0,1,1,6.55,3.624Z" transform="translate(-4.112 -3.489)" fill-rule="evenodd"/>
    <path id="Path_92" data-name="Path 92" d="M25.4,22.99c-.232-.116-1.375-.679-1.588-.756s-.368-.116-.523.116-.6.756-.736.911-.271.175-.5.058a6.349,6.349,0,0,1-1.869-1.154,7.007,7.007,0,0,1-1.293-1.61c-.136-.233-.014-.358.1-.474s.232-.271.349-.407a1.587,1.587,0,0,0,.232-.388.428.428,0,0,0-.019-.407c-.058-.116-.523-1.261-.717-1.726s-.38-.392-.523-.4-.291-.008-.446-.008a.854.854,0,0,0-.62.291,2.607,2.607,0,0,0-.814,1.939,4.521,4.521,0,0,0,.949,2.4,10.362,10.362,0,0,0,3.971,3.51,13.347,13.347,0,0,0,1.325.49,3.186,3.186,0,0,0,1.464.092,2.394,2.394,0,0,0,1.569-1.105,1.943,1.943,0,0,0,.136-1.105C25.792,23.165,25.637,23.107,25.4,22.99Z" transform="translate(-11.782 -11.74)" fill-rule="evenodd"/>
  </g>
</svg>
