<svg xmlns="http://www.w3.org/2000/svg" width="21.655" height="16.069" viewBox="0 0 21.655 16.069">
  <g id="youtube_icon" transform="translate(0.3 0.3)">
    <g id="Group_22" data-name="Group 22" transform="translate(0 0)">
      <path id="Path_46" data-name="Path 46" d="M16.868,6.5H4.188A4.2,4.2,0,0,0,0,10.7v7.07a4.2,4.2,0,0,0,4.188,4.2h12.68a4.2,4.2,0,0,0,4.188-4.2V10.7a4.2,4.2,0,0,0-4.188-4.2ZM20.2,17.769a3.338,3.338,0,0,1-3.331,3.341H4.188A3.338,3.338,0,0,1,.857,17.769V10.7a3.338,3.338,0,0,1,3.331-3.34h12.68A3.338,3.338,0,0,1,20.2,10.7Z" transform="translate(0 -6.5)" stroke="#000" stroke-width="0.6"/>
      <path id="Path_47" data-name="Path 47" d="M24.6,19.432l-5.954-3.487a.43.43,0,0,0-.647.371V23.29a.43.43,0,0,0,.647.371L24.6,20.175a.43.43,0,0,0,0-.742ZM18.859,22.54V17.065L23.533,19.8Z" transform="translate(-10.266 -11.853)" stroke="#000" stroke-width="0.6"/>
    </g>
  </g>
</svg>
