<svg xmlns="http://www.w3.org/2000/svg" width="22.8" height="21" viewBox="0 0 22.8 21">
  <path id="clock_icon" d="M12,4a9,9,0,1,0,9,9A9,9,0,0,0,12,4Zm0,16a7,7,0,1,1,7-7,7,7,0,0,1-7,7ZM21.19,3.81A12.88,12.88,0,0,0,17.06,1l-.78,1.84a11.08,11.08,0,0,1,3.5,2.36,11.43,11.43,0,0,1,1.87,2.49l1.75-1a13.19,13.19,0,0,0-2.21-2.88Zm-13.47-1L6.94,1A12.88,12.88,0,0,0,2.81,3.81,13.19,13.19,0,0,0,.6,6.74l1.75,1A11.43,11.43,0,0,1,4.22,5.22a11.08,11.08,0,0,1,3.5-2.36Zm3.47,11.25L8.6,11.52l-1.2,1.2,3.79,3.79L16.6,11.1,15.4,9.9Z" transform="translate(-0.6 -1)" fill="#a22"/>
</svg>
