<svg xmlns="http://www.w3.org/2000/svg" width="84.15" height="81.154" viewBox="0 0 84.15 81.154">
  <g id="Coriander2" transform="translate(-165.279 -172.783)">
    <path id="Path_40" data-name="Path 40" d="M422.214,255.592c.179-5.762,1.122-8.634,1.924-10.038a2.364,2.364,0,1,0-4.1-2.349c-1.555,2.716-2.387,6.783-2.548,12.368-.48.139-16.18,4.907-16.18,24.753,0,13.47,5.783,18.29,10.431,22.161a18.513,18.513,0,0,1,4.272,4.36,4.151,4.151,0,0,0,7.614.006,18.519,18.519,0,0,1,4.275-4.367c4.647-3.873,10.431-8.69,10.431-22.161,0-19.314-14.873-24.348-16.115-24.733Zm2.658,43.261a23.524,23.524,0,0,0-5.053,5.164,23.578,23.578,0,0,0-5.055-5.164c-4.292-3.575-8.73-7.272-8.73-18.529,0-15.222,10.578-19.48,12.463-20.117h2.639c1.913.649,12.467,4.913,12.467,20.117C433.6,291.58,429.164,295.277,424.872,298.853Z" transform="translate(-188.899 -55.41)"/>
    <path id="Path_41" data-name="Path 41" d="M513.745,374.132a1.419,1.419,0,0,0-2.487,1.366,20.672,20.672,0,0,1,2.265,10.032c0,6.3-1.566,9.14-3.1,11.084a1.419,1.419,0,0,0,2.231,1.756c1.833-2.326,3.7-5.671,3.7-12.841a23.448,23.448,0,0,0-2.617-11.4Z" transform="translate(-275.987 -160.557)"/>
    <path id="Path_42" data-name="Path 42" d="M449.5,385.539a20.66,20.66,0,0,1,2.263-10.03,1.419,1.419,0,0,0-2.487-1.367,23.449,23.449,0,0,0-2.614,11.4c0,7.169,1.872,10.513,3.7,12.84a1.419,1.419,0,0,0,2.231-1.754c-1.532-1.946-3.1-4.784-3.1-11.086Z" transform="translate(-225.196 -160.565)"/>
    <path id="Path_43" data-name="Path 43" d="M488.323,373.41a1.419,1.419,0,0,0-1.419,1.419v22.677a1.419,1.419,0,1,0,2.838,0V374.829A1.419,1.419,0,0,0,488.323,373.41Z" transform="translate(-257.406 -160.568)"/>
    <path id="Path_44" data-name="Path 44" d="M214.614,183.447l-.155-.275c4.2-3.954,6.9-5.32,8.464-5.743a2.364,2.364,0,1,0-1.237-4.563c-3.025.821-6.5,3.113-10.57,6.963l-.044-.044-.279-.158a26.952,26.952,0,0,0-12.37-2.881c-8.117,0-15.951,3.544-22.655,10.249-11.552,11.551-10.724,20.646-10.06,27.954.266,2.919.494,5.447-.1,7.743a4.593,4.593,0,0,0,1.006,4.937,4.538,4.538,0,0,0,3.228,1.336,4.662,4.662,0,0,0,1.705-.326,13.113,13.113,0,0,1,3.369-.378c1.372,0,2.833.133,4.379.275,1.781.161,3.621.33,5.615.33,5.563,0,13.132-1.181,22.339-10.39,17.177-17.179,7.466-34.852,7.367-35.028ZM203.9,215.13c-5.779,5.779-10.592,7.909-14.692,8.646l.03-2.029a.71.71,0,0,0-.7-.72h-.012a.71.71,0,0,0-.709.7l-.031,2.261a26.2,26.2,0,0,1-2.885.148c-.128,0-.253-.006-.378-.008l.009-2.069a.71.71,0,0,0-.707-.712h0a.709.709,0,0,0-.709.707l-.009,2.029c-1.11-.057-2.2-.15-3.269-.248l.08-3.49a.709.709,0,1,0-1.418-.032l-.077,3.4c-1.145-.1-2.271-.177-3.4-.181l-.017-1.806a.752.752,0,0,0-.715-.7.71.71,0,0,0-.7.716l.017,1.826a16.525,16.525,0,0,0-3.467.549l-.027.008.008-.031c.877-3.164.593-6.278.294-9.574-.637-6.978-1.292-14.2,8.693-24.182,5.883-5.882,12.38-8.864,19.313-8.864a23.1,23.1,0,0,1,9.792,2.14l2.419,2.421c1.051,2.083,6.941,15.425-6.73,29.094Z"/>
    <path id="Path_45" data-name="Path 45" d="M279.721,293.663a1.422,1.422,0,0,0-1.76.966,25.8,25.8,0,0,1-6.852,10.853c-5.563,5.562-9.463,6.687-12.548,7.053a1.418,1.418,0,0,0,.165,2.827,1.357,1.357,0,0,0,.168-.01c3.566-.424,8.045-1.69,14.219-7.864a28.575,28.575,0,0,0,7.573-12.066,1.418,1.418,0,0,0-.966-1.758Z" transform="translate(-73.655 -96.699)"/>
    <path id="Path_46" data-name="Path 46" d="M231.26,263.663a1.419,1.419,0,0,0-1.6-2.342,34.916,34.916,0,0,0-4.92,4.12c-6.17,6.168-7.437,10.647-7.864,14.216a1.417,1.417,0,0,0,1.239,1.576,1.264,1.264,0,0,0,.17.01,1.421,1.421,0,0,0,1.407-1.25c.37-3.086,1.5-6.989,7.053-12.546a32.091,32.091,0,0,1,4.515-3.783Z" transform="translate(-41.285 -70.663)"/>
    <path id="Path_47" data-name="Path 47" d="M300.621,248.491a1.4,1.4,0,0,0,.562-.116,19.784,19.784,0,0,1,2.308-.834,1.418,1.418,0,0,0-.793-2.723,22.244,22.244,0,0,0-2.639.952,1.419,1.419,0,0,0,.563,2.72Z" transform="translate(-107.182 -57.606)"/>
    <path id="Path_48" data-name="Path 48" d="M259.264,269.605a1.418,1.418,0,0,0-2.005,0l-19.753,19.754a1.418,1.418,0,0,0,2,2.005l19.755-19.755a1.417,1.417,0,0,0,0-2Z" transform="translate(-57.473 -77.158)"/>
  </g>
</svg>
