<svg xmlns="http://www.w3.org/2000/svg" width="14.656" height="10.705" viewBox="0 0 14.656 10.705">
  <path id="mail_icon2" d="M204.531,243.4H192.754a1.449,1.449,0,0,0-1.449,1.449v7.808a1.449,1.449,0,0,0,1.449,1.449h11.758a1.449,1.449,0,0,0,1.449-1.449v-7.808a1.433,1.433,0,0,0-1.43-1.449Zm.038,2.6-2.9,2.916L204,251.245a.364.364,0,0,1,0,.527.364.364,0,0,1-.527,0l-2.352-2.333-1.43,1.43a1.435,1.435,0,0,1-1.054.433,1.513,1.513,0,0,1-1.054-.433l-1.411-1.467-2.54,2.558a.45.45,0,0,1-.263.094.371.371,0,0,1-.263-.113.364.364,0,0,1,0-.527l2.54-2.54-2.935-3.048a.373.373,0,0,1,.546-.508l4.854,5.042a.738.738,0,0,0,1.035,0l4.891-4.891a.373.373,0,0,1,.527.527Z" transform="translate(-191.305 -243.4)"/>
</svg>
