<svg xmlns="http://www.w3.org/2000/svg" width="35" height="35" viewBox="0 0 35 35">
  <g id="share-icon" transform="translate(-482 -1919)">
    <circle id="Ellipse_12" data-name="Ellipse 12" cx="17.5" cy="17.5" r="17.5" transform="translate(482 1919)" fill="#a22"/>
    <path id="share2" d="M203.621,196.7a3.752,3.752,0,0,0,2.893-1.362l6.033,3.486h0a3.769,3.769,0,1,0,.545-.977l-6-3.467a3.744,3.744,0,0,0,0-2.878l6-3.467h0a3.78,3.78,0,1,0-.545-.977l-6.033,3.486a3.758,3.758,0,1,0-2.893,6.155Zm10.08,2.267h0a.45.45,0,0,0,.117-.209,2.643,2.643,0,1,1-.117.209Zm2.362-15.865h0a2.641,2.641,0,1,1-2.246,4.023.517.517,0,0,0-.123-.221,2.635,2.635,0,0,1,2.368-3.8Zm-12.442,7.2a2.644,2.644,0,1,1-1.866.774,2.64,2.64,0,0,1,1.866-.774Z" transform="translate(289.012 1743.561)" fill="#fff"/>
  </g>
</svg>
