<svg id="Testimonial" xmlns="http://www.w3.org/2000/svg" width="15.366" height="11.102" viewBox="0 0 15.366 11.102">
  <path id="Path_125" data-name="Path 125" d="M158.853,219.208h-2.467a.39.39,0,0,1-.389-.4c.011-1.161.767-1.982,1.922-2.73h0a.18.18,0,0,0,.083-.145v-.7a.2.2,0,0,0-.281-.163l-2.01.817a3.515,3.515,0,0,0-2.3,3.01v5.766a1.486,1.486,0,0,0,1.47,1.491h3.972a1.486,1.486,0,0,0,1.486-1.486v-3.978a1.486,1.486,0,0,0-1.486-1.486Z" transform="translate(-153.412 -215.056)"/>
  <path id="Path_126" data-name="Path 126" d="M403.468,219.227H401a.389.389,0,0,1-.387-.4c.01-1.161.766-1.982,1.92-2.73h0a.175.175,0,0,0,.083-.145v-.7a.2.2,0,0,0-.279-.163l-2.012.816a3.512,3.512,0,0,0-2.3,3.01v5.766a1.486,1.486,0,0,0,1.486,1.486h3.96a1.486,1.486,0,0,0,1.486-1.486v-3.973a1.486,1.486,0,0,0-1.486-1.486Z" transform="translate(-389.587 -215.075)"/>
</svg>
