<svg xmlns="http://www.w3.org/2000/svg" width="35" height="35" viewBox="0 0 35 35">
  <g id="wishlist-icon" transform="translate(-449 -1887)">
    <circle id="Ellipse_8" data-name="Ellipse 8" cx="17.5" cy="17.5" r="17.5" transform="translate(449 1887)" fill="#a22"/>
    <path id="wishlist" d="M234.461,267.371a2.121,2.121,0,0,1-1.509-.625l-6.9-6.9a5.39,5.39,0,0,1-1.589-3.837v-.085a5.427,5.427,0,0,1,5.426-5.426h.085a5.391,5.391,0,0,1,3.837,1.589l.652.652.652-.652a5.392,5.392,0,0,1,3.837-1.589h.085a5.427,5.427,0,0,1,5.426,5.426v.085a5.391,5.391,0,0,1-1.589,3.837l-6.9,6.9a2.121,2.121,0,0,1-1.509.625Zm-.625-1.509a.9.9,0,0,0,1.25,0l6.9-6.9a4.15,4.15,0,0,0,1.223-2.953v-.085a4.176,4.176,0,0,0-4.176-4.176h-.085A4.149,4.149,0,0,0,236,252.969l-1.094,1.094a.625.625,0,0,1-.884,0l-1.094-1.094a4.149,4.149,0,0,0-2.953-1.223h-.085a4.176,4.176,0,0,0-4.176,4.176v.085a4.15,4.15,0,0,0,1.223,2.953Z" transform="translate(232.539 1646.504)" fill="#fff"/>
  </g>
</svg>
