<svg xmlns="http://www.w3.org/2000/svg" width="21.977" height="21.898" viewBox="0 0 21.977 21.898">
  <g id="audiences-icon" transform="translate(-2.4 -2.4)">
    <line id="Line_60" data-name="Line 60" y2="2.388" transform="translate(13.349 14.145)" fill="none" stroke="rgba(255,255,255,0.8)" stroke-linecap="round" stroke-linejoin="round" stroke-miterlimit="10" stroke-width="1.2"/>
    <path id="Path_152" data-name="Path 152" d="M14,20.755l1.592-.955,1.592.955" transform="translate(-2.243 -3.426)" fill="none" stroke="rgba(255,255,255,0.8)" stroke-linecap="round" stroke-linejoin="round" stroke-miterlimit="10" stroke-width="1.2"/>
    <path id="Path_153" data-name="Path 153" d="M16.036,8.6a1.7,1.7,0,0,0,1.274,1.672A2.545,2.545,0,0,1,19.061,12.1H11.1a2.446,2.446,0,0,1,1.672-1.831A1.792,1.792,0,0,0,14.045,8.6h0" transform="translate(-1.652 -1.142)" fill="none" stroke="rgba(255,255,255,0.8)" stroke-linecap="round" stroke-linejoin="round" stroke-miterlimit="10" stroke-width="1.2"/>
    <path id="Path_154" data-name="Path 154" d="M15.592,7.776h0A1.6,1.6,0,0,1,14,6.184V4.592A1.6,1.6,0,0,1,15.592,3h0a1.6,1.6,0,0,1,1.592,1.592V6.184A1.6,1.6,0,0,1,15.592,7.776Z" transform="translate(-2.243)" fill="none" stroke="rgba(255,255,255,0.8)" stroke-linecap="round" stroke-linejoin="round" stroke-miterlimit="10" stroke-width="1.2"/>
    <path id="Path_155" data-name="Path 155" d="M24.036,24.6a1.7,1.7,0,0,0,1.274,1.672A2.545,2.545,0,0,1,27.061,28.1H19.1a2.446,2.446,0,0,1,1.672-1.831A1.792,1.792,0,0,0,22.045,24.6h0" transform="translate(-3.283 -4.405)" fill="none" stroke="rgba(255,255,255,0.8)" stroke-linecap="round" stroke-linejoin="round" stroke-miterlimit="10" stroke-width="1.2"/>
    <path id="Path_156" data-name="Path 156" d="M23.592,23.776h0A1.6,1.6,0,0,1,22,22.184V20.592A1.6,1.6,0,0,1,23.592,19h0a1.6,1.6,0,0,1,1.592,1.592v1.592A1.6,1.6,0,0,1,23.592,23.776Z" transform="translate(-3.875 -3.263)" fill="none" stroke="rgba(255,255,255,0.8)" stroke-linecap="round" stroke-linejoin="round" stroke-miterlimit="10" stroke-width="1.2"/>
    <path id="Path_157" data-name="Path 157" d="M8.015,24.6a1.7,1.7,0,0,0,1.274,1.672A2.545,2.545,0,0,1,11.04,28.1H3a2.446,2.446,0,0,1,1.672-1.831A1.792,1.792,0,0,0,5.945,24.6h0" transform="translate(0 -4.405)" fill="none" stroke="rgba(255,255,255,0.8)" stroke-linecap="round" stroke-linejoin="round" stroke-miterlimit="10" stroke-width="1.2"/>
    <path id="Path_158" data-name="Path 158" d="M7.592,23.776h0A1.6,1.6,0,0,1,6,22.184V20.592A1.6,1.6,0,0,1,7.592,19h0a1.6,1.6,0,0,1,1.592,1.592v1.592A1.6,1.6,0,0,1,7.592,23.776Z" transform="translate(-0.612 -3.263)" fill="none" stroke="rgba(255,255,255,0.8)" stroke-linecap="round" stroke-linejoin="round" stroke-miterlimit="10" stroke-width="1.2"/>
  </g>
</svg>
