<svg xmlns="http://www.w3.org/2000/svg" width="20.064" height="20.062" viewBox="0 0 20.064 20.062">
  <g id="brand-icon" transform="translate(-1.993 -1.997)">
    <path id="Path_160" data-name="Path 160" d="M26.321,6.04l1.387.052L30.981,9.36l-.1.58a.334.334,0,0,0,.485.352l.359-.189,2.658,2.659a.334.334,0,0,0,.473-.473L32.344,9.779l1.345-.708,2.324,1.222A.334.334,0,0,0,36.5,9.94l-.444-2.588L37.936,5.52a.334.334,0,0,0-.185-.57l-2.772-.4a.334.334,0,1,0-.1.662l.98.142-1.838.411V3.8l.094.19a.334.334,0,0,0,.6-.3L33.99,2.217a.348.348,0,0,0-.6,0L32.228,4.572l-2.6.377a.334.334,0,0,0-.185.57l1.88,1.833-.206,1.2-3.03-3.027a.334.334,0,0,0-.224-.1l-1.518-.057A.33.33,0,0,0,26,5.693a.334.334,0,0,0,.322.347ZM33.534,8.4,32.188,9.1l1.5-2.31,1.5,2.31L33.845,8.4a.334.334,0,0,0-.311,0Zm1.832-1.1.2,1.162L34.233,6.4l2.391-.537L35.462,7a.334.334,0,0,0-.1.3ZM32.5,5.207a.334.334,0,0,0,.252-.183L33.355,3.8V5.763L31.516,5.35Zm-1.741.657,2.391.537L31.814,8.454l.2-1.162a.334.334,0,0,0-.1-.3Z" transform="translate(-15.98 -0.033)" fill="rgba(255,255,255,0.8)"/>
    <path id="Path_161" data-name="Path 161" d="M19.822,13.2a.335.335,0,0,0-.474.473l1.745,1.745a1.008,1.008,0,0,1,0,1.42L16.837,21.1a1.007,1.007,0,0,1-1.42,0l-3.874-3.878,1.386-1.345a.334.334,0,0,0-.185-.57l-3.407-.5L7.813,11.719a.348.348,0,0,0-.6,0l-.386.782-.769-.769-.13-3.5a3.091,3.091,0,0,0,.565.107,1.34,1.34,0,1,0-.208-.707A3.032,3.032,0,0,1,5.9,7.522L5.84,5.84l3.171.117a.327.327,0,0,0,.346-.322.334.334,0,0,0-.322-.347L7.968,5.25a6.042,6.042,0,0,0-1.2-1.672,5.648,5.648,0,0,0-2.306-1.45,1.972,1.972,0,0,0-2.024.316,1.968,1.968,0,0,0-.316,2.024,5.649,5.649,0,0,0,1.45,2.3,6.056,6.056,0,0,0,1.672,1.2l.146,3.919a.332.332,0,0,0,.1.224l1.023,1.023-.825,1.672-3.406.5a.334.334,0,0,0-.186.572l1.8,1.753a.335.335,0,0,0,.468-.479l-.954-.93,3.561.8L4.913,20.182l.338-1.967a.334.334,0,0,0-.659-.113L3.98,21.668a.334.334,0,0,0,.485.352l3.047-1.6,3.047,1.6a.334.334,0,0,0,.485-.352l-.582-3.393.6-.588,3.882,3.884a1.678,1.678,0,0,0,2.364,0l4.256-4.256a1.678,1.678,0,0,0,0-2.365ZM8.091,8.093a.669.669,0,0,1-.723.147,1.419,1.419,0,0,0,.869-.869.669.669,0,0,1-.146.722Zm-.946-.946a.666.666,0,0,1,.473-.2c.013,0,.026,0,.04,0a.8.8,0,0,1-.7.7.664.664,0,0,1,.192-.513ZM4.048,6.3a4.974,4.974,0,0,1-1.281-2.02,1.375,1.375,0,0,1,.147-1.362,1.374,1.374,0,0,1,1.362-.147A4.974,4.974,0,0,1,6.3,4.05a5.715,5.715,0,0,1,.9,1.17L5.5,5.158a.329.329,0,0,0-.249.1.334.334,0,0,0-.1.249l.063,1.7a5.71,5.71,0,0,1-1.17-.9Zm5.018,9.144,1.789.26-3.009.675V13.3l.967,1.96a.334.334,0,0,0,.253.184Zm-4.9.26,1.789-.26a.334.334,0,0,0,.252-.183L7.178,13.3v3.079Zm3.187,4.042L5.287,20.832l2.225-3.423,2.224,3.423L7.668,19.745a.332.332,0,0,0-.311,0Zm2.418-1.531.337,1.967L8.055,17.016l3.561-.8-1.746,1.7a.334.334,0,0,0-.1.3Z" transform="translate(0)" fill="rgba(255,255,255,0.8)"/>
    <path id="Path_162" data-name="Path 162" d="M22.922,22.93a1,1,0,0,0,.657-1.707l-.473-.473a.344.344,0,0,0-.473,0l-1.891,1.891a.334.334,0,0,0,0,.473l.473.473a1,1,0,0,0,1.707-.657Zm-.052-1.471.237.236a.334.334,0,1,1-.473.473l-.236-.236Zm-.709,1.655a.334.334,0,0,1-.473,0l-.236-.237.473-.473.236.236a.334.334,0,0,1,0,.474Z" transform="translate(-12.415 -12.421)" fill="rgba(255,255,255,0.8)"/>
    <path id="Path_163" data-name="Path 163" d="M27.337,29.24a.334.334,0,1,0,.473.473l.473-.473a1,1,0,0,0,.288-.657,1,1,0,0,0,.657-1.705l-.473-.473a.334.334,0,0,0-.473,0L26.391,28.3a.334.334,0,1,0,.473.473l.709-.709.236.237a.334.334,0,0,1,0,.473Zm1.182-2.128.236.236a.334.334,0,0,1-.473.473l-.236-.236Z" transform="translate(-16.172 -16.181)" fill="rgba(255,255,255,0.8)"/>
    <path id="Path_164" data-name="Path 164" d="M33.009,35.464a.334.334,0,1,0,.473.473L34.9,34.518a1,1,0,0,0,0-1.418,1.027,1.027,0,0,0-1.419,0l-1.419,1.418a.334.334,0,0,0,.473.473l.71-.709.472.473Zm.709-1.655.237-.236a.342.342,0,0,1,.472,0,.334.334,0,0,1,0,.473l-.236.236Z" transform="translate(-19.954 -20.514)" fill="rgba(255,255,255,0.8)"/>
    <path id="Path_165" data-name="Path 165" d="M38.728,41.072a.334.334,0,0,0,.412-.048l1.891-1.891a.334.334,0,0,0-.473-.473l-.89.89.5-1.493a.334.334,0,0,0-.554-.342l-1.891,1.891a.334.334,0,0,0,.473.473l.89-.89-.5,1.494a.334.334,0,0,0,.141.39Z" transform="translate(-23.72 -23.71)" fill="rgba(255,255,255,0.8)"/>
    <path id="Path_166" data-name="Path 166" d="M43.843,46.207a1,1,0,0,0,1.419,0l.946-.946a1,1,0,0,0,0-1.418l-.473-.473a.334.334,0,0,0-.473,0L43.37,45.261a.334.334,0,0,0,0,.473ZM45.5,44.079l.236.237a.334.334,0,0,1,0,.473l-.946.946a.334.334,0,0,1-.473,0l-.237-.236Z" transform="translate(-27.477 -27.475)" fill="rgba(255,255,255,0.8)"/>
  </g>
</svg>
