<svg id="channel-icon" xmlns="http://www.w3.org/2000/svg" width="26.698" height="20.386" viewBox="0 0 26.698 20.386">
  <path id="Path_159" data-name="Path 159" d="M21.346.23a2.082,2.082,0,1,1-1.119,3.837.327.327,0,0,1-.046.05L18.636,5.606A6.946,6.946,0,0,1,20.4,9.9h2.16a2.081,2.081,0,1,1,.033.845l-.033,0H20.392a6.938,6.938,0,0,1-1.821,4.217l1.636,1.521a.453.453,0,0,1,.043.048,2.089,2.089,0,1,1-.613.58l-.007-.007-1.671-1.551a6.962,6.962,0,0,1-9.137-.1L7.138,17.094l0,0a2.085,2.085,0,1,1-.611-.587.1.1,0,0,1,.022-.022l1.68-1.636a6.934,6.934,0,0,1-1.721-4.157l-2.368.024H4.124a2.083,2.083,0,1,1-.007-.845h.011L6.5,9.85a6.939,6.939,0,0,1,1.725-4.2L6.46,3.963a.334.334,0,0,1-.037-.041,2.06,2.06,0,0,1-.971.239,2.08,2.08,0,1,1,1.625-.78L8.824,5.05a6.96,6.96,0,0,1,9.211-.037l1.56-1.5a.379.379,0,0,1,.03-.026A2.082,2.082,0,0,1,21.346.23ZM12.474,10.969l.58,1.706.291-1.013-.143-.156a.238.238,0,0,1-.043-.248c.078-.154.237-.124.387-.124s.35-.03.4.167a.255.255,0,0,1-.05.2l-.143.156.291,1.013.526-1.706c.378.341,1.5.408,1.919.643a1.1,1.1,0,0,1,.348.293,1.4,1.4,0,0,1,.259.76l.087.845a.381.381,0,0,1-.4.374H10.265a.382.382,0,0,1-.4-.374l.087-.845a1.4,1.4,0,0,1,.259-.76,1.1,1.1,0,0,1,.348-.293c.417-.235,1.538-.3,1.916-.643Zm-.156-2.579a.088.088,0,0,1,.009.041.081.081,0,0,1,0,.022l.011.08a.344.344,0,0,1-.08.007.1.1,0,0,1-.035.007.3.3,0,0,0-.159.039.111.111,0,0,0-.039.046.149.149,0,0,0-.013.078.75.75,0,0,0,.152.365l0,0h0l.324.515a2.8,2.8,0,0,0,.432.569.871.871,0,0,0,.608.246.9.9,0,0,0,.645-.256,2.766,2.766,0,0,0,.445-.608l.365-.6c.074-.167.1-.269.072-.317-.015-.033-.08-.039-.189-.03a.113.113,0,0,1-.087-.03.106.106,0,0,1-.026,0l0-.026a.131.131,0,0,1-.013-.041.114.114,0,0,1,.039-.1l.076-.385A2.848,2.848,0,0,1,13.2,7.544c-.178-.113-.23-.243-.408-.23a.606.606,0,0,0-.337.183.884.884,0,0,0-.193.38l.061.513Zm2.762,0a.264.264,0,0,1,.169.137.64.64,0,0,1-.07.511h0l-.007.013L14.8,9.66a3.106,3.106,0,0,1-.482.654,1.1,1.1,0,0,1-.8.315,1.084,1.084,0,0,1-.758-.3,2.95,2.95,0,0,1-.472-.613L11.972,9.2a.957.957,0,0,1-.187-.48.4.4,0,0,1,.033-.178.339.339,0,0,1,.117-.137.361.361,0,0,1,.087-.043,8.365,8.365,0,0,1-.013-.906,1.166,1.166,0,0,1,.587-.908,1.378,1.378,0,0,1,.3-.143,1.842,1.842,0,0,1,1.89.376,1.253,1.253,0,0,1,.317.8l-.02.819Zm2.69-2.466c-.013-.011-.024-.022-.035-.033l-.017-.02a6.11,6.11,0,0,0-8.533,0,.529.529,0,0,1-.043.054.452.452,0,0,1-.07.059,6.112,6.112,0,1,0,8.7-.063l-.007,0Z" fill="rgba(255,255,255,0.8)" fill-rule="evenodd"/>
</svg>
