<svg xmlns="http://www.w3.org/2000/svg" xmlns:xlink="http://www.w3.org/1999/xlink" width="23.99" height="23.99" viewBox="0 0 23.99 23.99">
  <defs>
    <clipPath id="clip-path">
      <path id="Path" d="M0,0H23.99V23.99H0Z" fill="rgba(255,255,255,0)" clip-rule="evenodd"/>
    </clipPath>
  </defs>
  <g id="compaigns-icon" transform="translate(0.256 0.256)">
    <g id="Two-Tone" transform="translate(-0.256 -0.256)">
      <g id="Action" transform="translate(0 0)">
        <g id="Two-Tone-_-Action-_-dashboard" data-name="Two-Tone-/-Action-/-dashboard">
          <g id="Group_82" data-name="Group 82">
            <g id="Mask_Group_1" data-name="Mask Group 1" clip-path="url(#clip-path)">
              <g id="_15793660381605806466" data-name="15793660381605806466" transform="translate(1.13)">
                <path id="Path_167" data-name="Path 167" d="M8.8,5.613c-1.975,0-2.581.02-4.576.02a3.3,3.3,0,0,0-.645.059,2.574,2.574,0,0,0-.587.176,2.951,2.951,0,0,0-.548.293,3.2,3.2,0,0,0-.489.411,3.2,3.2,0,0,0-.411.489,2.951,2.951,0,0,0-.293.548,3.345,3.345,0,0,0-.176.587,3.6,3.6,0,0,0-.059.645v6.512A3.3,3.3,0,0,0,1.076,16a2.574,2.574,0,0,0,.176.587,2.951,2.951,0,0,0,.293.548,3.2,3.2,0,0,0,.411.489h0a3.341,3.341,0,0,0,.508.411,2.951,2.951,0,0,0,.548.293A3.345,3.345,0,0,0,3.6,18.5a3.6,3.6,0,0,0,.645.059H6.708a.394.394,0,0,1,.215.059,1.075,1.075,0,0,1,.176.137h0c.2.254.391.508.606.743a7.535,7.535,0,0,0,.684.684,7.842,7.842,0,0,0,.743.626c.254.2.528.391.782.567a8.277,8.277,0,0,0,.821.489c.274.156.567.293.86.43a.087.087,0,0,0,.1,0,.106.106,0,0,0,.039-.156c-.059-.1-.1-.176-.156-.274-.039-.1-.1-.176-.137-.274h0c-.078-.2-.156-.372-.235-.567a5.527,5.527,0,0,1-.215-.606c-.059-.2-.137-.391-.2-.587s-.117-.391-.176-.606a.541.541,0,0,1-.02-.176.562.562,0,0,1,.137-.352h0a.49.49,0,0,1,.352-.156h2.875a3.3,3.3,0,0,0,.645-.059A3.344,3.344,0,0,0,15.2,18.3h0a2.792,2.792,0,0,0,.528-.293,2.584,2.584,0,0,0,.508-.43h0a3.2,3.2,0,0,0,.411-.489,2.951,2.951,0,0,0,.293-.548,3.344,3.344,0,0,0,.176-.587,3.6,3.6,0,0,0,.059-.645v-1.33a.527.527,0,0,1,1.017-.2v1.525a3.958,3.958,0,0,1-.078.841,6.2,6.2,0,0,1-.235.8,3.713,3.713,0,0,1-.391.724,3.422,3.422,0,0,1-.548.645,4.17,4.17,0,0,1-.645.548,6.328,6.328,0,0,1-.7.391h0a5.941,5.941,0,0,1-.782.235,3.958,3.958,0,0,1-.841.078H11.89a.111.111,0,0,0-.078.137h0c.039.117.078.254.117.391h0c.059.176.137.372.215.548s.137.352.215.508v.02c.078.176.156.332.254.508.1.156.215.332.332.489s.254.313.411.489h0a3.909,3.909,0,0,0,.508.469.607.607,0,0,1,.176.352.586.586,0,0,1-.117.352.363.363,0,0,1-.235.137.644.644,0,0,1-.274,0c-.372-.1-.743-.215-1.1-.332a9.518,9.518,0,0,1-1.036-.411c-.332-.137-.665-.313-.978-.469-.313-.176-.626-.352-.919-.548h0c-.293-.2-.587-.391-.86-.606s-.548-.45-.8-.684h0A6.534,6.534,0,0,1,7.1,20.28c-.2-.215-.411-.45-.587-.684a.108.108,0,0,0-.1-.059H4.224a3.958,3.958,0,0,1-.841-.078,5.168,5.168,0,0,1-.782-.235h0a3.713,3.713,0,0,1-.724-.391,4.221,4.221,0,0,1-.645-.528,5.339,5.339,0,0,1-.548-.645,3.713,3.713,0,0,1-.391-.724,5.168,5.168,0,0,1-.235-.782,4.972,4.972,0,0,1-.059-.8V8.8a3.958,3.958,0,0,1,.078-.841,5.168,5.168,0,0,1,.235-.782A3.713,3.713,0,0,1,.7,6.453a3.422,3.422,0,0,1,.548-.645A5.34,5.34,0,0,1,1.9,5.261a6.328,6.328,0,0,1,.7-.391h0a5.414,5.414,0,0,1,.8-.235,3.958,3.958,0,0,1,.841-.078H9.035A.547.547,0,0,1,8.8,5.613Zm2.562,1.017a1.452,1.452,0,0,0-.1.724l.059.352c.039.117.078.254.117.372l.176.352a1.619,1.619,0,0,0,.215.293,1.351,1.351,0,0,0,.665.45c.45.137,1.232-.254,1.643-.391h0a.318.318,0,0,1,.235.02.384.384,0,0,1,.176.176c0,.02,0,.02.02.039.02.078.059.156.078.235a14.831,14.831,0,0,0,.587,1.6c.02.039.039.1.059.137v.02a4.138,4.138,0,0,0,.215.411,1.439,1.439,0,0,0,.215.313.241.241,0,0,0,.156.078.458.458,0,0,0,.254-.137,1.18,1.18,0,0,1,.156-.156h0l.176-.176a6.659,6.659,0,0,0,.645-.645l-.059-.02c-.665-.215-.626-.567-.587-.88h0a.551.551,0,0,0,0-.254h0c0-.02-.02,0-.059-.039-.02-.02-.039-.02-.059-.039a.878.878,0,0,1-.215-.254,1.145,1.145,0,0,1-.078-.724,2.113,2.113,0,0,1,.1-.411h0a.315.315,0,0,1,.078-.137.393.393,0,0,1,.156-.078h0a4.218,4.218,0,0,1,2.738.176c.1.039.215.078.313.117a6.878,6.878,0,0,1-.8-1,11.2,11.2,0,0,1-1.056-1.9,12.316,12.316,0,0,1-.724-1.995A8.816,8.816,0,0,1,16.6,1.975a9.393,9.393,0,0,1-1.291,1.74c-.548.508-3.735,2.425-3.95,2.914Zm8.174-1.506a1.975,1.975,0,0,1-.2.9,1.417,1.417,0,0,1-.332.489,7.877,7.877,0,0,0,.841,1.076,4.551,4.551,0,0,0,.9.763h.059a.072.072,0,0,0,.059-.02.068.068,0,0,0,.039-.02.446.446,0,0,0,.117-.235,1.139,1.139,0,0,0,.059-.372,5.3,5.3,0,0,0-.215-1.545A13.752,13.752,0,0,0,20.1,4.126a14.244,14.244,0,0,0-1.056-1.877A6.721,6.721,0,0,0,17.992.978,1.734,1.734,0,0,0,17.64.724a.473.473,0,0,0-.254-.078h-.02a.27.27,0,0,0-.059.078h0a2.873,2.873,0,0,0-.039,1.33,9.9,9.9,0,0,0,.489,1.877.486.486,0,0,1,.176-.02,1.821,1.821,0,0,1,.763.1,1.248,1.248,0,0,1,.7.567,1.712,1.712,0,0,1,.137.548Zm1.193,3.892h-.078A.118.118,0,0,1,20.573,9l-.1-.02c-.235-.02-.489-.078-.743-.117h-.02a4.132,4.132,0,0,1-.743-.235,3.389,3.389,0,0,0-2.249-.215.431.431,0,0,0-.02.156.656.656,0,0,0,0,.2c0,.039.02.078.02.117a.068.068,0,0,0,.02.039l.02.02a.677.677,0,0,1,.293.332.982.982,0,0,1,.039.411c-.02.137-.02.274.137.332h0a.712.712,0,0,1,.508.391c.02.02.02.059.039.078h0v.078h0c-.039.372-.587.9-.9,1.193l-.156.156-.02.02-.117.117v.078a1.043,1.043,0,0,1-.724.352.856.856,0,0,1-.606-.293,2.435,2.435,0,0,1-.313-.43c-.078-.156-.156-.313-.235-.489-.02-.039-.039-.1-.059-.137a12.606,12.606,0,0,1-.587-1.6,2.457,2.457,0,0,1-1.74.293,2.255,2.255,0,0,1-.958-.645h0a2.8,2.8,0,0,1-.274-.391,2.944,2.944,0,0,1-.215-.43,4.1,4.1,0,0,1-.156-.45,1.963,1.963,0,0,1-.078-.469,2.156,2.156,0,0,1,.137-1.076c.411-.9,3.109-2.073,4.165-3.246a10.522,10.522,0,0,0,1.408-2.092V1A6.634,6.634,0,0,1,16.8.254l.117-.117a.828.828,0,0,1,.137-.1A.46.46,0,0,0,17.209,0h.176a1.683,1.683,0,0,1,.489.137,1.988,1.988,0,0,1,.508.352,7.836,7.836,0,0,1,1.173,1.369,13.648,13.648,0,0,1,1.115,1.975A14.842,14.842,0,0,1,21.492,6a5.822,5.822,0,0,1,.235,1.721h0a2.424,2.424,0,0,1-.117.567,1.278,1.278,0,0,1-.254.45l-.02.02-.02.039a1.459,1.459,0,0,1-.235.137h0A.51.51,0,0,1,20.866,9h-.078l-.059.02Zm-7.881,6.649a.469.469,0,1,0,0-.939l-5.026-.078-.958-.059a.48.48,0,0,0-.059.958l.958.059c.02-.02,4.654.039,5.085.059Zm-1.506-2.973a.469.469,0,1,0,0-.939H4.557a.469.469,0,0,0,0,.939ZM9.23,9.856a.469.469,0,1,0,0-.939H4.557a.469.469,0,0,0,0,.939Z" fill="rgba(255,255,255,0.8)"/>
              </g>
            </g>
          </g>
        </g>
      </g>
    </g>
  </g>
</svg>
