<svg xmlns="http://www.w3.org/2000/svg" width="19.289" height="22.504" viewBox="0 0 19.289 22.504">
  <g id="consumers-icon" transform="translate(-2.796 -1.244)">
    <g id="Group_86" data-name="Group 86" transform="translate(2.796 1.244)">
      <g id="_21-30" data-name="21-30" transform="translate(0)">
        <g id="Investor">
          <path id="Path_150" data-name="Path 150" d="M18.5,11.318a4.79,4.79,0,0,0-2.4.589,7.172,7.172,0,0,0-2.827-.589H10.063a7.241,7.241,0,0,0-7.233,7.233v1.607A2.411,2.411,0,0,0,5.241,22.57H18.5c2.062,0,3.617-1.037,3.617-2.411v-6.43C22.118,12.355,20.563,11.318,18.5,11.318Zm2.009,5.626c0,.233-.7.8-2.009.8s-2.009-.571-2.009-.8V15.754a5.425,5.425,0,0,0,4.019,0ZM10.56,20.962l-.3-.6a.8.8,0,0,1-.055-.581l1.269-4.441h.4l1.269,4.442a.8.8,0,0,1-.055.58l-.3.6Zm4.123-1.625-1.35-4.724.8-1.614a5.5,5.5,0,0,1,.833.2,1.768,1.768,0,0,0-.084.534v6.43a1.777,1.777,0,0,0,.207.8h-.529a2.4,2.4,0,0,0,.119-1.625Zm5.828-5.608c0,.233-.7.8-2.009.8s-2.009-.571-2.009-.8.7-.8,2.009-.8S20.511,13.5,20.511,13.729Zm-8.132-.8-.4.8h-.614l-.4-.8ZM4.437,20.159V18.551A5.626,5.626,0,0,1,9.2,13l.808,1.615-1.35,4.723a2.4,2.4,0,0,0,.119,1.626H5.241A.8.8,0,0,1,4.437,20.159Zm14.065.8c-1.305,0-2.009-.571-2.009-.8V18.969a5.425,5.425,0,0,0,4.019,0v1.189C20.511,20.392,19.807,20.962,18.5,20.962Z" transform="translate(-2.829 -0.066)" fill="#fff"/>
          <path id="Path_151" data-name="Path 151" d="M16.911,7.041a5.626,5.626,0,1,0-5.626,5.626,5.626,5.626,0,0,0,5.626-5.626ZM11.285,3.022a3.969,3.969,0,0,1,1.838.466A5.6,5.6,0,0,1,8.874,5.433a5.591,5.591,0,0,1-1.189-.141,4.01,4.01,0,0,1,3.6-2.27Zm0,8.037A4.023,4.023,0,0,1,7.266,7.041c0-.063.016-.121.018-.184a7.186,7.186,0,0,0,1.589.184,7.194,7.194,0,0,0,5.5-2.54,3.98,3.98,0,0,1,.93,2.54A4.023,4.023,0,0,1,11.285,11.059Z" transform="translate(-2.444 -1.415)" fill="#fff"/>
        </g>
      </g>
    </g>
  </g>
</svg>
