<svg xmlns="http://www.w3.org/2000/svg" width="20.486" height="22" viewBox="0 0 20.486 22">
  <g id="hubspot-icon" transform="translate(-4 -2)">
    <path id="Path_168" data-name="Path 168" d="M14.367,16.4h5.867a.367.367,0,0,0,.367-.367V12.367A.367.367,0,0,0,20.233,12H14.367a.367.367,0,0,0-.367.367v3.667a.367.367,0,0,0,.367.367Zm.367-3.667h5.133v2.933H14.733Z" transform="translate(-6.333 -6.333)" fill="rgba(255,255,255,0.8)"/>
    <path id="Path_169" data-name="Path 169" d="M42.2,13H40v.733h2.2Z" transform="translate(-22.8 -6.967)" fill="rgba(255,255,255,0.8)"/>
    <path id="Path_170" data-name="Path 170" d="M39.667,17H36v.733h3.667Z" transform="translate(-20.267 -9.5)" fill="rgba(255,255,255,0.8)"/>
    <path id="Path_171" data-name="Path 171" d="M38.2,21H36v.733h2.2Z" transform="translate(-20.267 -12.033)" fill="rgba(255,255,255,0.8)"/>
    <path id="Path_172" data-name="Path 172" d="M26.067,28H18v.733h8.067Z" transform="translate(-8.867 -16.467)" fill="rgba(255,255,255,0.8)"/>
    <path id="Path_173" data-name="Path 173" d="M22.067,32H14v.733h8.067Z" transform="translate(-6.333 -19)" fill="rgba(255,255,255,0.8)"/>
    <path id="Path_174" data-name="Path 174" d="M20.6,36H14v.733h6.6Z" transform="translate(-6.333 -21.533)" fill="rgba(255,255,255,0.8)"/>
    <path id="Path_175" data-name="Path 175" d="M19.133,40H14v.733h5.133Z" transform="translate(-6.333 -24.067)" fill="rgba(255,255,255,0.8)"/>
    <path id="Path_176" data-name="Path 176" d="M19.133,44H14v.733h5.133Z" transform="translate(-6.333 -26.6)" fill="rgba(255,255,255,0.8)"/>
    <path id="Path_177" data-name="Path 177" d="M19.133,48H14v.733h5.133Z" transform="translate(-6.333 -29.133)" fill="rgba(255,255,255,0.8)"/>
    <path id="Path_178" data-name="Path 178" d="M24.379,11.2,23.067,9.883V4.2a2.2,2.2,0,0,0-2.2-2.2H6.2A2.2,2.2,0,0,0,4,4.2V21.8A2.2,2.2,0,0,0,6.2,24H20.867a2.2,2.2,0,0,0,2.2-2.2V13.026l1.313-1.313a.37.37,0,0,0,.106-.257A.379.379,0,0,0,24.379,11.2ZM22.333,21.8a1.467,1.467,0,0,1-1.467,1.467H6.2A1.467,1.467,0,0,1,4.733,21.8V4.2A1.467,1.467,0,0,1,6.2,2.733H20.867A1.467,1.467,0,0,1,22.333,4.2V9.15L22.3,9.121a.367.367,0,0,0-.517,0l-.187.187V4.2a.736.736,0,0,0-.733-.733H6.2a.736.736,0,0,0-.733.733V21.8a.736.736,0,0,0,.733.733H20.867A.735.735,0,0,0,21.6,21.8V14.492l.733-.733Zm-6.919-4.528.29-.752L16.98,17.8l-.752.29Zm.066,1.1L14.9,18.6l.224-.576ZM15.3,15.6a.372.372,0,0,0-.084.128L13.926,19.1a.362.362,0,0,0,.081.392.369.369,0,0,0,.26.106.338.338,0,0,0,.132-.026l3.37-1.294A.372.372,0,0,0,17.9,18.2l2.97-2.97V21.8H6.2V4.2H20.867v5.841Zm2.332,1.815-.517-.517,4.407-4.407.517.517ZM16.6,16.381l-.517-.517,4.407-4.407.517.517Zm5.966-3.887-1.558-1.558L22.044,9.9,23.6,11.456Z" transform="translate(0 0)" fill="rgba(255,255,255,0.8)"/>
    <path id="Path_179" data-name="Path 179" d="M36.733,13H36v.733h.733Z" transform="translate(-20.267 -6.967)" fill="rgba(255,255,255,0.8)"/>
    <path id="Path_180" data-name="Path 180" d="M44.733,21H44v.733h.733Z" transform="translate(-25.333 -12.033)" fill="rgba(255,255,255,0.8)"/>
    <path id="Path_181" data-name="Path 181" d="M14.733,28H14v.733h.733Z" transform="translate(-6.333 -16.467)" fill="rgba(255,255,255,0.8)"/>
  </g>
</svg>
