<svg xmlns="http://www.w3.org/2000/svg" width="89.578" height="67.185" viewBox="0 0 89.578 67.185">
  <g id="Group_11" data-name="Group 11" transform="translate(-102.21 -162.41)">
    <path id="Intersection_1" data-name="Intersection 1" d="M-1151.892-3996.8h-33.815a9.806,9.806,0,0,1-9.686,8.4,9.806,9.806,0,0,1-9.686-8.4h-4.311a1.4,1.4,0,0,1-1.4-1.4v-55.987a1.4,1.4,0,0,1,1.4-1.4H-1159a1.4,1.4,0,0,1,1.4,1.4v9.8h16.127a4.177,4.177,0,0,1,4.014,2.963l4.686,15.233h1.766a9.81,9.81,0,0,1,9.8,9.8v18.2a1.4,1.4,0,0,1-1.4,1.4h-9.909a9.807,9.807,0,0,1-9.686,8.4A9.806,9.806,0,0,1-1151.892-3996.8Zm2.689-1.4a7.006,7.006,0,0,0,7,7,7.007,7.007,0,0,0,7-7,7.007,7.007,0,0,0-7-7A7.006,7.006,0,0,0-1149.2-3998.2Zm-53.188,0a7.007,7.007,0,0,0,7,7,7.007,7.007,0,0,0,7-7,7.006,7.006,0,0,0-7-7A7.007,7.007,0,0,0-1202.391-3998.2Zm16.684-1.4h25.307v-11.2h-47.589v11.2h2.911a9.806,9.806,0,0,1,9.686-8.4A9.806,9.806,0,0,1-1185.707-3999.6Zm53.188,0h8.51v-16.8a7.007,7.007,0,0,0-7-7h-19.6a1.4,1.4,0,0,1-1.4-1.4v-12.6a1.4,1.4,0,0,1,1.4-1.4h11.026l-.559-1.811a1.4,1.4,0,0,0-1.338-.988H-1157.6v41.99h5.711a9.806,9.806,0,0,1,9.686-8.4A9.805,9.805,0,0,1-1132.519-3999.6Zm-75.471-14h47.589v-39.191h-16.8v12.6a1.4,1.4,0,0,1-.665,1.191,1.4,1.4,0,0,1-.735.208,1.384,1.384,0,0,1-.625-.148l-4.973-2.486-4.971,2.487a1.4,1.4,0,0,1-1.362-.062,1.4,1.4,0,0,1-.665-1.191v-12.6h-16.8Zm58.785-12.6h13.5l-3.015-9.8H-1149.2Zm-34.366-18.047,3.573,1.786v-10.333h-8.4v10.333l3.573-1.786a1.4,1.4,0,0,1,.627-.148A1.392,1.392,0,0,1-1183.57-4044.244Z" transform="translate(1312.999 4218)"/>
  </g>
</svg>
