<svg xmlns="http://www.w3.org/2000/svg" width="55.269" height="70" viewBox="0 0 55.269 70">
  <g id="Natural-Products" transform="translate(-272.074 -75.796)">
    <path id="Exclusion_1" data-name="Exclusion 1" d="M-876.086-4065.2a1.077,1.077,0,0,1-.782-.3,1.07,1.07,0,0,1-.3-.779v-11.936a4.786,4.786,0,0,1,.539-2.043,59.9,59.9,0,0,1,5.387-8.449,23.514,23.514,0,0,1,3.979-4.108,9.975,9.975,0,0,1,2.109-1.277,5.378,5.378,0,0,1,2.112-.473,4.152,4.152,0,0,1,.966.113h.431l.108-13.011a10.888,10.888,0,0,1,.573-3.981,8.3,8.3,0,0,1,1.782-3.034,4.107,4.107,0,0,1,2.936-1.414,3.412,3.412,0,0,1,1.285.258h0a3.467,3.467,0,0,1,2.062,2.635,15,15,0,0,1,.2,3.925v20.215c0,2.357-.626,3.592-2.953,8.188-1.3,2.563-3.076,6.073-5.564,11.381v2.8a1.07,1.07,0,0,1-.3.78,1.077,1.077,0,0,1-.782.3,1.076,1.076,0,0,1-.782-.3,1.07,1.07,0,0,1-.3-.78v-3.01a.648.648,0,0,1,.108-.43c1.373-3.182,2.641-5.929,3.875-8.4,1.043-2.087,1.841-3.535,2.483-4.7,2.176-3.945,2.176-3.945,2.079-11.889h0c-.039-3.248-.094-7.7-.028-14.26a17.991,17.991,0,0,0-.215-3.656,1.1,1.1,0,0,0-1.108-.978,2.463,2.463,0,0,0-1.679.87,7.271,7.271,0,0,0-1.526,5.377c-.165,5.355-.168,8.822-.171,11.353a28.759,28.759,0,0,1-.239,5.3,11.108,11.108,0,0,1-1.638,3.456c-.825,1.352-1.7,2.94-2.345,4.247a11.129,11.129,0,0,0-1.213,3.28,1,1,0,0,1-.337.786,1.128,1.128,0,0,1-.741.262,1.128,1.128,0,0,1-.741-.262,1,1,0,0,1-.337-.786,12.856,12.856,0,0,1,1.7-4.7c.889-1.746,1.863-3.366,2.183-3.9v0a13.532,13.532,0,0,0,1.4-2.917,1.607,1.607,0,0,0,.108-.739c0-.047-.087-.1-.239-.146a1.55,1.55,0,0,0-.408-.068h-.215a1.978,1.978,0,0,0-.5-.063c-.981,0-2.208.651-3.646,1.935a30.068,30.068,0,0,0-3.891,4.4,44.049,44.049,0,0,0-3.1,4.772,9.148,9.148,0,0,0-1.263,3.039v12.043a1.07,1.07,0,0,1-.3.779A1.077,1.077,0,0,1-876.086-4065.2Zm-8.411-.106a1.076,1.076,0,0,1-.782-.3,1.071,1.071,0,0,1-.3-.78v-11.936a9.239,9.239,0,0,0-1.273-2.953,46.5,46.5,0,0,0-3.118-4.777,30.949,30.949,0,0,0-3.91-4.446c-1.444-1.3-2.672-1.961-3.649-1.961a1.942,1.942,0,0,0-.448.051h-.215a1.472,1.472,0,0,1-.332.1.7.7,0,0,0-.314.115c-.077.651.947,2.516,2.131,4.675.86,1.568,1.835,3.344,2.481,4.848.741,1.724.941,2.833.61,3.389a.784.784,0,0,1-.344.312,1.32,1.32,0,0,1-.567.109,1.077,1.077,0,0,1-.782-.3,1.071,1.071,0,0,1-.3-.78,6.305,6.305,0,0,0-.8-2.539c-.48-.99-1.111-2.07-1.779-3.213-1.527-2.614-3.105-5.317-2.815-6.937l-.215-14.839c.122-3.287-1.121-4.941-1.661-5.5a2.35,2.35,0,0,0-1.572-.821,1.1,1.1,0,0,0-1.08,1.053c-.243,1.21-.242,1.392-.227,10.9.005,3.129.012,7.414.012,13.079,0,1.786.418,2.615,2.425,6.6h0c1.258,2.5,3.16,6.276,5.983,12.322.146.218.144.344.127,1.323h0c-.008.482-.019,1.142-.019,2.117a1.07,1.07,0,0,1-.3.779,1.075,1.075,0,0,1-.782.3,1,1,0,0,1-.766-.281c-.41-.434-.358-1.317-.308-2.171a7.252,7.252,0,0,0,0-1.419l-7.547-15.484a8.244,8.244,0,0,1-.881-3.187c-.116-1.292-.1-3.024-.064-5.9.037-3.229.093-8.108-.025-15.433a15,15,0,0,1,.2-3.925,3.465,3.465,0,0,1,2.062-2.634,3.414,3.414,0,0,1,1.284-.257,4.083,4.083,0,0,1,2.92,1.4,8.322,8.322,0,0,1,1.795,3.069,11.209,11.209,0,0,1,.578,4.063l.108,13.011h.431a4.187,4.187,0,0,1,.974-.114,5.415,5.415,0,0,1,2.112.468,9.988,9.988,0,0,1,2.108,1.265,23.357,23.357,0,0,1,3.977,4.072,58.156,58.156,0,0,1,5.383,8.4,3.833,3.833,0,0,1,.542,1.709c.07.725.054,1.776.028,3.518v0c-.028,1.843-.069,4.628-.032,8.75a1.071,1.071,0,0,1-.3.78A1.076,1.076,0,0,1-884.5-4065.31Zm4.206-22.582a.955.955,0,0,1-.728-.262,1.775,1.775,0,0,1-.359-1.125,19.058,19.058,0,0,1,.02-1.939,35.8,35.8,0,0,0-.011-4.094,32.524,32.524,0,0,1-4.995-2.1,20.1,20.1,0,0,1-3.832-2.6,15.09,15.09,0,0,1-1.484-1.5,13.3,13.3,0,0,1-1.2-1.631,12.578,12.578,0,0,1-.911-1.768,12.914,12.914,0,0,1-.627-1.905,13.436,13.436,0,0,1-.334-2.283,15.607,15.607,0,0,1,.038-2.324,20.968,20.968,0,0,1,1.006-4.677,37.62,37.62,0,0,1,4.433-8.791,63.042,63.042,0,0,1,5.191-6.756c.7-.795,1.779-1.991,2.982-3.181l.053-.053a1.068,1.068,0,0,1,.755-.323,1.068,1.068,0,0,1,.755.323l.055.054c.666.659,1.724,1.746,2.986,3.186a63.042,63.042,0,0,1,5.19,6.756,37.621,37.621,0,0,1,4.43,8.788,20.961,20.961,0,0,1,1,4.675,15.609,15.609,0,0,1,.038,2.323,13.444,13.444,0,0,1-.334,2.282,12.685,12.685,0,0,1-1.553,3.687,14.3,14.3,0,0,1-2.705,3.154,19.991,19.991,0,0,1-3.838,2.609,30.718,30.718,0,0,1-4.949,2.055,35.822,35.822,0,0,0-.011,4.095,19.063,19.063,0,0,1,.02,1.939,1.775,1.775,0,0,1-.359,1.125A.956.956,0,0,1-880.291-4087.892Zm0-44.732A56.316,56.316,0,0,0-890-4119.617c-2.349,4.6-3.115,8.687-2.277,12.134,1.068,4.394,4.738,7.693,10.91,9.806v-4.193a20.931,20.931,0,0,0-2.241-1.961,14.48,14.48,0,0,1-1.258-1.065,1.661,1.661,0,0,1-.56-.944,1,1,0,0,1,.285-.761.921.921,0,0,1,.694-.346c.584,0,1.215.605,1.884,1.246a10.323,10.323,0,0,0,1.2,1.036v-4.946l-3.666-3.226a1.258,1.258,0,0,1-.377-.753.9.9,0,0,1,.27-.753,1.239,1.239,0,0,1,.854-.382.912.912,0,0,1,.655.274l2.264,2.043v-8.279a1.071,1.071,0,0,1,.3-.78,1.075,1.075,0,0,1,.782-.3,1.075,1.075,0,0,1,.782.3,1.071,1.071,0,0,1,.3.78v8.279a10.836,10.836,0,0,0,1.056-.964,11.088,11.088,0,0,1,1.019-.935,1.686,1.686,0,0,1,.971-.425.932.932,0,0,1,.728.388.941.941,0,0,1,.3.717,1.7,1.7,0,0,1-.578.986,16.13,16.13,0,0,1-1.34,1.154,26.286,26.286,0,0,0-2.15,1.874v4.946a10.842,10.842,0,0,0,1.056-.963,11.2,11.2,0,0,1,1.019-.936,1.685,1.685,0,0,1,.971-.424.93.93,0,0,1,.728.388.941.941,0,0,1,.3.717,1.7,1.7,0,0,1-.578.986,16.045,16.045,0,0,1-1.34,1.155,26.347,26.347,0,0,0-2.15,1.873v4.194c6.156-2.154,9.819-5.41,10.889-9.677,1.009-4.119-.324-9.2-3.962-15.094a63.7,63.7,0,0,0-8-10.174h0Z" transform="translate(1180 4211)"/>
  </g>
</svg>
