<svg xmlns="http://www.w3.org/2000/svg" width="39.469" height="39.469" viewBox="0 0 39.469 39.469">
  <g id="WA" transform="translate(-1.031 -1.5)">
    <path id="Path_161" data-name="Path 161" d="M4.607,37.393l7.286-2A17.167,17.167,0,0,0,21,38,17,17,0,1,0,4,21a17.167,17.167,0,0,0,2.611,9.107Z" fill="#25d366" stroke="#fff" stroke-miterlimit="10" stroke-width="5"/>
    <path id="Path_162" data-name="Path 162" d="M36.431,30.805A5.131,5.131,0,0,1,32.863,33.3c-1.982.332-4.493-.388-6.476-1.162a15.451,15.451,0,0,1-6.938-5.148A7.222,7.222,0,0,1,18,23.554a3.9,3.9,0,0,1,1.982-3.487,1.274,1.274,0,0,1,.661-.166h.991a1,1,0,0,1,.925.554l1.52,3.1a.847.847,0,0,1-.2.941l-.991.886a.733.733,0,0,0-.132,1,1.875,1.875,0,0,0,.4.443,11.4,11.4,0,0,0,4.559,2.989,5.109,5.109,0,0,0,.661.221,1.147,1.147,0,0,0,1.123-.332l.793-1a1.059,1.059,0,0,1,.991-.387l3.965.5a1.1,1.1,0,0,1,.859.664l.264.83A.451.451,0,0,1,36.431,30.805Z" transform="translate(-6.244 -5.591)" fill="#fff"/>
  </g>
</svg>
